G75*
%MOIN*%
%OFA0B0*%
%FSLAX24Y24*%
%IPPOS*%
%LPD*%
%AMOC8*
5,1,8,0,0,1.08239X$1,22.5*
%
%ADD10C,0.0000*%
%ADD11R,0.0984X0.0787*%
%ADD12R,0.1299X0.0197*%
D10*
X000180Y000180D02*
X000180Y015176D01*
X015400Y015176D01*
X015400Y000180D01*
X000180Y000180D01*
X012903Y006614D02*
X012905Y006640D01*
X012911Y006666D01*
X012921Y006691D01*
X012934Y006714D01*
X012950Y006734D01*
X012970Y006752D01*
X012992Y006767D01*
X013015Y006779D01*
X013041Y006787D01*
X013067Y006791D01*
X013093Y006791D01*
X013119Y006787D01*
X013145Y006779D01*
X013169Y006767D01*
X013190Y006752D01*
X013210Y006734D01*
X013226Y006714D01*
X013239Y006691D01*
X013249Y006666D01*
X013255Y006640D01*
X013257Y006614D01*
X013255Y006588D01*
X013249Y006562D01*
X013239Y006537D01*
X013226Y006514D01*
X013210Y006494D01*
X013190Y006476D01*
X013168Y006461D01*
X013145Y006449D01*
X013119Y006441D01*
X013093Y006437D01*
X013067Y006437D01*
X013041Y006441D01*
X013015Y006449D01*
X012991Y006461D01*
X012970Y006476D01*
X012950Y006494D01*
X012934Y006514D01*
X012921Y006537D01*
X012911Y006562D01*
X012905Y006588D01*
X012903Y006614D01*
X012903Y008346D02*
X012905Y008372D01*
X012911Y008398D01*
X012921Y008423D01*
X012934Y008446D01*
X012950Y008466D01*
X012970Y008484D01*
X012992Y008499D01*
X013015Y008511D01*
X013041Y008519D01*
X013067Y008523D01*
X013093Y008523D01*
X013119Y008519D01*
X013145Y008511D01*
X013169Y008499D01*
X013190Y008484D01*
X013210Y008466D01*
X013226Y008446D01*
X013239Y008423D01*
X013249Y008398D01*
X013255Y008372D01*
X013257Y008346D01*
X013255Y008320D01*
X013249Y008294D01*
X013239Y008269D01*
X013226Y008246D01*
X013210Y008226D01*
X013190Y008208D01*
X013168Y008193D01*
X013145Y008181D01*
X013119Y008173D01*
X013093Y008169D01*
X013067Y008169D01*
X013041Y008173D01*
X013015Y008181D01*
X012991Y008193D01*
X012970Y008208D01*
X012950Y008226D01*
X012934Y008246D01*
X012921Y008269D01*
X012911Y008294D01*
X012905Y008320D01*
X012903Y008346D01*
D11*
X012096Y009232D03*
X014261Y009232D03*
X014261Y005728D03*
X012096Y005728D03*
D12*
X011860Y006850D03*
X011860Y007165D03*
X011860Y007480D03*
X011860Y007795D03*
X011860Y008110D03*
M02*
