G75*
%MOIN*%
%OFA0B0*%
%FSLAX24Y24*%
%IPPOS*%
%LPD*%
%AMOC8*
5,1,8,0,0,1.08239X$1,22.5*
%
%ADD10C,0.0000*%
%ADD11OC8,0.0560*%
%ADD12C,0.0560*%
%ADD13C,0.0480*%
%ADD14C,0.0380*%
%ADD15OC8,0.0660*%
%ADD16R,0.0984X0.0787*%
%ADD17R,0.1299X0.0197*%
%ADD18OC8,0.0600*%
%ADD19C,0.0100*%
%ADD20C,0.0160*%
D10*
X000180Y000180D02*
X000180Y015176D01*
X015400Y015176D01*
X015400Y000180D01*
X000180Y000180D01*
X012903Y006614D02*
X012905Y006640D01*
X012911Y006666D01*
X012921Y006691D01*
X012934Y006714D01*
X012950Y006734D01*
X012970Y006752D01*
X012992Y006767D01*
X013015Y006779D01*
X013041Y006787D01*
X013067Y006791D01*
X013093Y006791D01*
X013119Y006787D01*
X013145Y006779D01*
X013169Y006767D01*
X013190Y006752D01*
X013210Y006734D01*
X013226Y006714D01*
X013239Y006691D01*
X013249Y006666D01*
X013255Y006640D01*
X013257Y006614D01*
X013255Y006588D01*
X013249Y006562D01*
X013239Y006537D01*
X013226Y006514D01*
X013210Y006494D01*
X013190Y006476D01*
X013168Y006461D01*
X013145Y006449D01*
X013119Y006441D01*
X013093Y006437D01*
X013067Y006437D01*
X013041Y006441D01*
X013015Y006449D01*
X012991Y006461D01*
X012970Y006476D01*
X012950Y006494D01*
X012934Y006514D01*
X012921Y006537D01*
X012911Y006562D01*
X012905Y006588D01*
X012903Y006614D01*
X012903Y008346D02*
X012905Y008372D01*
X012911Y008398D01*
X012921Y008423D01*
X012934Y008446D01*
X012950Y008466D01*
X012970Y008484D01*
X012992Y008499D01*
X013015Y008511D01*
X013041Y008519D01*
X013067Y008523D01*
X013093Y008523D01*
X013119Y008519D01*
X013145Y008511D01*
X013169Y008499D01*
X013190Y008484D01*
X013210Y008466D01*
X013226Y008446D01*
X013239Y008423D01*
X013249Y008398D01*
X013255Y008372D01*
X013257Y008346D01*
X013255Y008320D01*
X013249Y008294D01*
X013239Y008269D01*
X013226Y008246D01*
X013210Y008226D01*
X013190Y008208D01*
X013168Y008193D01*
X013145Y008181D01*
X013119Y008173D01*
X013093Y008169D01*
X013067Y008169D01*
X013041Y008173D01*
X013015Y008181D01*
X012991Y008193D01*
X012970Y008208D01*
X012950Y008226D01*
X012934Y008246D01*
X012921Y008269D01*
X012911Y008294D01*
X012905Y008320D01*
X012903Y008346D01*
D11*
X008880Y010230D03*
X008880Y011230D03*
X008880Y013630D03*
X006130Y012730D03*
X005130Y012730D03*
X005130Y010730D03*
X006130Y010730D03*
D12*
X008880Y012830D03*
D13*
X004670Y007930D02*
X004190Y007930D01*
X004190Y006930D02*
X004670Y006930D01*
X004670Y005930D02*
X004190Y005930D01*
X004190Y004930D02*
X004670Y004930D01*
X001670Y004930D02*
X001190Y004930D01*
X001190Y005930D02*
X001670Y005930D01*
X001670Y006930D02*
X001190Y006930D01*
X001190Y007930D02*
X001670Y007930D01*
X011140Y004230D02*
X011620Y004230D01*
X011620Y002230D02*
X011140Y002230D01*
X014140Y002230D02*
X014620Y002230D01*
X014620Y004230D02*
X014140Y004230D01*
D14*
X003070Y010730D02*
X002690Y010730D01*
X002690Y012730D02*
X003070Y012730D01*
D15*
X006080Y008230D03*
X006080Y006230D03*
X006080Y004230D03*
X006080Y002230D03*
X009680Y002230D03*
X009680Y004230D03*
X009680Y006230D03*
X009680Y008230D03*
D16*
X012096Y009232D03*
X014261Y009232D03*
X014261Y005728D03*
X012096Y005728D03*
D17*
X011860Y006850D03*
X011860Y007165D03*
X011860Y007480D03*
X011860Y007795D03*
X011860Y008110D03*
D18*
X011880Y011130D03*
X011880Y012130D03*
X011880Y013130D03*
X012880Y013130D03*
X012880Y012130D03*
X012880Y011130D03*
D19*
X012930Y012055D02*
X012880Y012130D01*
X012930Y012055D02*
X014930Y010055D01*
X014930Y008805D01*
X013680Y007555D01*
X011930Y007555D01*
X011860Y007480D01*
X011805Y007180D02*
X011860Y007165D01*
X011930Y007180D01*
X012555Y007180D01*
X012680Y007305D01*
X013305Y007305D01*
X013805Y006805D01*
X013805Y006430D01*
X013555Y006180D01*
X013555Y005555D01*
X011430Y003430D01*
X011430Y002305D01*
X011380Y002230D01*
X011305Y002305D01*
X009680Y002305D01*
X009680Y002230D01*
X009680Y004230D02*
X009680Y004305D01*
X011305Y004305D01*
X011380Y004230D01*
X009680Y006230D02*
X009680Y006305D01*
X010180Y006805D01*
X007805Y009180D01*
X006930Y008305D01*
X006180Y008305D01*
X006080Y008230D01*
X005555Y008055D02*
X005555Y008555D01*
X009055Y012055D01*
X011805Y012055D01*
X011880Y012130D01*
X008880Y011230D02*
X008805Y011180D01*
X011805Y008180D01*
X011860Y008110D01*
X011805Y007180D02*
X010680Y007180D01*
X009680Y008180D01*
X009680Y008230D01*
X010180Y006805D02*
X011805Y006805D01*
X011860Y006850D01*
X014380Y004230D02*
X014430Y004180D01*
X014430Y002305D01*
X014380Y002230D01*
X007805Y009180D02*
X008805Y010180D01*
X008880Y010230D01*
X006180Y010805D02*
X006130Y010730D01*
X006180Y010805D02*
X006180Y012680D01*
X006130Y012730D01*
X005130Y012730D02*
X005055Y012805D01*
X002930Y012805D01*
X002880Y012730D01*
X002930Y010805D02*
X002880Y010730D01*
X002930Y010805D02*
X005055Y010805D01*
X005130Y010730D01*
X005555Y008055D02*
X006555Y007055D01*
X006555Y005930D01*
X005555Y004930D01*
X004430Y004930D01*
X003930Y005430D02*
X005305Y005430D01*
X006055Y006180D01*
X006080Y006230D01*
X003930Y005430D02*
X001430Y007930D01*
X001430Y005930D02*
X001430Y004930D01*
D20*
X001240Y005310D02*
X001114Y005310D01*
X000975Y005252D01*
X000868Y005145D01*
X000810Y005006D01*
X000810Y004854D01*
X000868Y004715D01*
X000975Y004608D01*
X001114Y004550D01*
X001746Y004550D01*
X001885Y004608D01*
X001992Y004715D01*
X002050Y004854D01*
X002050Y005006D01*
X001992Y005145D01*
X001885Y005252D01*
X001746Y005310D01*
X001620Y005310D01*
X001620Y005550D01*
X001746Y005550D01*
X001885Y005608D01*
X001992Y005715D01*
X002050Y005854D01*
X002050Y006006D01*
X001992Y006145D01*
X001885Y006252D01*
X001746Y006310D01*
X001114Y006310D01*
X000975Y006252D01*
X000868Y006145D01*
X000810Y006006D01*
X000810Y005854D01*
X000868Y005715D01*
X000975Y005608D01*
X001114Y005550D01*
X001240Y005550D01*
X001240Y005310D01*
X001240Y005411D02*
X000410Y005411D01*
X000410Y005569D02*
X001069Y005569D01*
X000863Y005728D02*
X000410Y005728D01*
X000410Y005886D02*
X000810Y005886D01*
X000826Y006045D02*
X000410Y006045D01*
X000410Y006203D02*
X000926Y006203D01*
X001114Y006550D02*
X001746Y006550D01*
X001885Y006608D01*
X001992Y006715D01*
X002050Y006854D01*
X002050Y007006D01*
X002025Y007067D01*
X003740Y005351D01*
X003851Y005240D01*
X003963Y005240D01*
X003868Y005145D01*
X003810Y005006D01*
X003810Y004854D01*
X003868Y004715D01*
X003975Y004608D01*
X004114Y004550D01*
X004746Y004550D01*
X004885Y004608D01*
X004992Y004715D01*
X005003Y004740D01*
X005634Y004740D01*
X006634Y005740D01*
X006745Y005851D01*
X006745Y007134D01*
X006119Y007760D01*
X006275Y007760D01*
X006550Y008035D01*
X006550Y008115D01*
X007009Y008115D01*
X007805Y008911D01*
X009911Y006805D01*
X009806Y006700D01*
X009485Y006700D01*
X009210Y006425D01*
X009210Y006035D01*
X009485Y005760D01*
X009875Y005760D01*
X010150Y006035D01*
X010150Y006425D01*
X010109Y006465D01*
X010259Y006615D01*
X011149Y006615D01*
X011152Y006612D01*
X011831Y006612D01*
X011865Y006608D01*
X011869Y006612D01*
X012567Y006612D01*
X012649Y006694D01*
X012649Y007005D01*
X012745Y007101D01*
X012759Y007115D01*
X013226Y007115D01*
X013615Y006726D01*
X013615Y006509D01*
X013365Y006259D01*
X013365Y005634D01*
X012000Y004269D01*
X012000Y004306D01*
X011942Y004445D01*
X011835Y004552D01*
X011696Y004610D01*
X011064Y004610D01*
X010925Y004552D01*
X010868Y004495D01*
X010080Y004495D01*
X009875Y004700D01*
X009485Y004700D01*
X009210Y004425D01*
X009210Y004035D01*
X009485Y003760D01*
X009875Y003760D01*
X010150Y004035D01*
X010150Y004115D01*
X010776Y004115D01*
X010818Y004015D01*
X010925Y003908D01*
X011064Y003850D01*
X011581Y003850D01*
X011240Y003509D01*
X011240Y002610D01*
X011064Y002610D01*
X010925Y002552D01*
X010868Y002495D01*
X010080Y002495D01*
X009875Y002700D01*
X009485Y002700D01*
X009210Y002425D01*
X009210Y002035D01*
X009485Y001760D01*
X009875Y001760D01*
X010150Y002035D01*
X010150Y002115D01*
X010776Y002115D01*
X010818Y002015D01*
X010925Y001908D01*
X011064Y001850D01*
X011696Y001850D01*
X011835Y001908D01*
X011942Y002015D01*
X012000Y002154D01*
X012000Y002306D01*
X011942Y002445D01*
X011835Y002552D01*
X011696Y002610D01*
X011620Y002610D01*
X011620Y003351D01*
X013629Y005360D01*
X013629Y005276D01*
X013711Y005194D01*
X014811Y005194D01*
X014893Y005276D01*
X014893Y006180D01*
X014811Y006262D01*
X013905Y006262D01*
X013995Y006351D01*
X013995Y006884D01*
X013514Y007365D01*
X013759Y007365D01*
X015120Y008726D01*
X015120Y010134D01*
X013313Y011941D01*
X013320Y011948D01*
X013320Y012312D01*
X013062Y012570D01*
X012698Y012570D01*
X012440Y012312D01*
X012440Y011948D01*
X012698Y011690D01*
X013026Y011690D01*
X014740Y009976D01*
X014740Y009766D01*
X013711Y009766D01*
X013629Y009684D01*
X013629Y008780D01*
X013711Y008698D01*
X014555Y008698D01*
X013601Y007745D01*
X012649Y007745D01*
X012649Y007951D01*
X012648Y007952D01*
X012649Y007954D01*
X012649Y008266D01*
X012567Y008348D01*
X011915Y008348D01*
X011907Y008359D01*
X011893Y008360D01*
X011555Y008698D01*
X012646Y008698D01*
X012728Y008780D01*
X012728Y009684D01*
X012646Y009766D01*
X011546Y009766D01*
X011464Y009684D01*
X011464Y008790D01*
X009249Y011005D01*
X009300Y011056D01*
X009300Y011404D01*
X009054Y011650D01*
X008919Y011650D01*
X009134Y011865D01*
X011523Y011865D01*
X011698Y011690D01*
X012062Y011690D01*
X012320Y011948D01*
X012320Y012312D01*
X012062Y012570D01*
X011698Y012570D01*
X011440Y012312D01*
X011440Y012245D01*
X008976Y012245D01*
X008865Y012134D01*
X005365Y008634D01*
X005365Y007976D01*
X005476Y007865D01*
X006365Y006976D01*
X006365Y006610D01*
X006275Y006700D01*
X005885Y006700D01*
X005610Y006425D01*
X005610Y006035D01*
X005626Y006020D01*
X005226Y005620D01*
X004897Y005620D01*
X004992Y005715D01*
X005050Y005854D01*
X005050Y006006D01*
X004992Y006145D01*
X004885Y006252D01*
X004746Y006310D01*
X004114Y006310D01*
X003975Y006252D01*
X003868Y006145D01*
X003810Y006006D01*
X003810Y005854D01*
X003835Y005793D01*
X001953Y007676D01*
X001992Y007715D01*
X002050Y007854D01*
X002050Y008006D01*
X001992Y008145D01*
X001885Y008252D01*
X001746Y008310D01*
X001114Y008310D01*
X000975Y008252D01*
X000868Y008145D01*
X000810Y008006D01*
X000810Y007854D01*
X000868Y007715D01*
X000975Y007608D01*
X001114Y007550D01*
X001541Y007550D01*
X001807Y007285D01*
X001746Y007310D01*
X001114Y007310D01*
X000975Y007252D01*
X000868Y007145D01*
X000810Y007006D01*
X000810Y006854D01*
X000868Y006715D01*
X000975Y006608D01*
X001114Y006550D01*
X000904Y006679D02*
X000410Y006679D01*
X000410Y006837D02*
X000817Y006837D01*
X000810Y006996D02*
X000410Y006996D01*
X000410Y007154D02*
X000877Y007154D01*
X000953Y007630D02*
X000410Y007630D01*
X000410Y007788D02*
X000838Y007788D01*
X000810Y007947D02*
X000410Y007947D01*
X000410Y008105D02*
X000851Y008105D01*
X001002Y008264D02*
X000410Y008264D01*
X000410Y008422D02*
X005365Y008422D01*
X005365Y008264D02*
X004858Y008264D01*
X004885Y008252D02*
X004746Y008310D01*
X004114Y008310D01*
X003975Y008252D01*
X003868Y008145D01*
X003810Y008006D01*
X003810Y007854D01*
X003868Y007715D01*
X003975Y007608D01*
X004114Y007550D01*
X004746Y007550D01*
X004885Y007608D01*
X004992Y007715D01*
X005050Y007854D01*
X005050Y008006D01*
X004992Y008145D01*
X004885Y008252D01*
X005009Y008105D02*
X005365Y008105D01*
X005395Y007947D02*
X005050Y007947D01*
X005022Y007788D02*
X005553Y007788D01*
X005712Y007630D02*
X004907Y007630D01*
X004746Y007310D02*
X004885Y007252D01*
X004992Y007145D01*
X005050Y007006D01*
X005050Y006854D01*
X004992Y006715D01*
X004885Y006608D01*
X004746Y006550D01*
X004114Y006550D01*
X003975Y006608D01*
X003868Y006715D01*
X003810Y006854D01*
X003810Y007006D01*
X003868Y007145D01*
X003975Y007252D01*
X004114Y007310D01*
X004746Y007310D01*
X004983Y007154D02*
X006187Y007154D01*
X006029Y007313D02*
X002316Y007313D01*
X002158Y007471D02*
X005870Y007471D01*
X006249Y007630D02*
X009087Y007630D01*
X008928Y007788D02*
X006303Y007788D01*
X006461Y007947D02*
X008770Y007947D01*
X008611Y008105D02*
X006550Y008105D01*
X006480Y008495D02*
X006275Y008700D01*
X005969Y008700D01*
X008460Y011191D01*
X008460Y011056D01*
X008706Y010810D01*
X008906Y010810D01*
X011368Y008348D01*
X011152Y008348D01*
X011070Y008266D01*
X011070Y007954D01*
X011071Y007952D01*
X011070Y007951D01*
X011070Y007639D01*
X011071Y007637D01*
X011070Y007636D01*
X011070Y007370D01*
X010759Y007370D01*
X010122Y008007D01*
X010150Y008035D01*
X010150Y008425D01*
X009875Y008700D01*
X009485Y008700D01*
X009210Y008425D01*
X009210Y008044D01*
X008074Y009180D01*
X008705Y009811D01*
X008706Y009810D01*
X009054Y009810D01*
X009300Y010056D01*
X009300Y010404D01*
X009054Y010650D01*
X008706Y010650D01*
X008460Y010404D01*
X008460Y010104D01*
X007726Y009370D01*
X007615Y009259D01*
X006851Y008495D01*
X006480Y008495D01*
X006394Y008581D02*
X006937Y008581D01*
X007095Y008739D02*
X006008Y008739D01*
X006166Y008898D02*
X007254Y008898D01*
X007412Y009056D02*
X006325Y009056D01*
X006483Y009215D02*
X007571Y009215D01*
X007729Y009373D02*
X006642Y009373D01*
X006800Y009532D02*
X007888Y009532D01*
X008046Y009690D02*
X006959Y009690D01*
X007117Y009849D02*
X008205Y009849D01*
X008363Y010007D02*
X007276Y010007D01*
X007434Y010166D02*
X008460Y010166D01*
X008460Y010324D02*
X007593Y010324D01*
X007751Y010483D02*
X008539Y010483D01*
X008697Y010641D02*
X007910Y010641D01*
X008068Y010800D02*
X008917Y010800D01*
X009063Y010641D02*
X009075Y010641D01*
X009221Y010483D02*
X009234Y010483D01*
X009300Y010324D02*
X009392Y010324D01*
X009300Y010166D02*
X009551Y010166D01*
X009709Y010007D02*
X009251Y010007D01*
X009092Y009849D02*
X009868Y009849D01*
X010026Y009690D02*
X008584Y009690D01*
X008425Y009532D02*
X010185Y009532D01*
X010343Y009373D02*
X008267Y009373D01*
X008108Y009215D02*
X010502Y009215D01*
X010660Y009056D02*
X008198Y009056D01*
X008356Y008898D02*
X010819Y008898D01*
X010977Y008739D02*
X008515Y008739D01*
X008673Y008581D02*
X009366Y008581D01*
X009210Y008422D02*
X008832Y008422D01*
X008990Y008264D02*
X009210Y008264D01*
X009210Y008105D02*
X009149Y008105D01*
X009494Y007760D02*
X009831Y007760D01*
X010596Y006995D01*
X010259Y006995D01*
X009494Y007760D01*
X009624Y007630D02*
X009962Y007630D01*
X010120Y007471D02*
X009783Y007471D01*
X009941Y007313D02*
X010279Y007313D01*
X010437Y007154D02*
X010100Y007154D01*
X010258Y006996D02*
X010596Y006996D01*
X010658Y007471D02*
X011070Y007471D01*
X011070Y007630D02*
X010499Y007630D01*
X010341Y007788D02*
X011070Y007788D01*
X011070Y007947D02*
X010182Y007947D01*
X010150Y008105D02*
X011070Y008105D01*
X011070Y008264D02*
X010150Y008264D01*
X010150Y008422D02*
X011294Y008422D01*
X011136Y008581D02*
X009994Y008581D01*
X010881Y009373D02*
X011464Y009373D01*
X011464Y009532D02*
X010722Y009532D01*
X010564Y009690D02*
X011470Y009690D01*
X011464Y009215D02*
X011039Y009215D01*
X011198Y009056D02*
X011464Y009056D01*
X011464Y008898D02*
X011356Y008898D01*
X011673Y008581D02*
X012739Y008581D01*
X012735Y008577D02*
X012673Y008427D01*
X012673Y008265D01*
X012735Y008116D01*
X012849Y008001D01*
X012999Y007939D01*
X013161Y007939D01*
X013311Y008001D01*
X013425Y008116D01*
X013487Y008265D01*
X013487Y008427D01*
X013425Y008577D01*
X013311Y008691D01*
X013161Y008753D01*
X012999Y008753D01*
X012849Y008691D01*
X012735Y008577D01*
X012673Y008422D02*
X011832Y008422D01*
X012649Y008264D02*
X012674Y008264D01*
X012649Y008105D02*
X012745Y008105D01*
X012649Y007947D02*
X012981Y007947D01*
X013179Y007947D02*
X013803Y007947D01*
X013961Y008105D02*
X013415Y008105D01*
X013486Y008264D02*
X014120Y008264D01*
X014278Y008422D02*
X013487Y008422D01*
X013421Y008581D02*
X014437Y008581D01*
X014657Y008264D02*
X015170Y008264D01*
X015170Y008422D02*
X014816Y008422D01*
X014974Y008581D02*
X015170Y008581D01*
X015170Y008739D02*
X015120Y008739D01*
X015120Y008898D02*
X015170Y008898D01*
X015170Y009056D02*
X015120Y009056D01*
X015120Y009215D02*
X015170Y009215D01*
X015170Y009373D02*
X015120Y009373D01*
X015120Y009532D02*
X015170Y009532D01*
X015170Y009690D02*
X015120Y009690D01*
X015120Y009849D02*
X015170Y009849D01*
X015170Y010007D02*
X015120Y010007D01*
X015088Y010166D02*
X015170Y010166D01*
X015170Y010324D02*
X014930Y010324D01*
X014771Y010483D02*
X015170Y010483D01*
X015170Y010641D02*
X014613Y010641D01*
X014454Y010800D02*
X015170Y010800D01*
X015170Y010958D02*
X014296Y010958D01*
X014137Y011117D02*
X015170Y011117D01*
X015170Y011275D02*
X013979Y011275D01*
X013820Y011434D02*
X015170Y011434D01*
X015170Y011592D02*
X013662Y011592D01*
X013503Y011751D02*
X015170Y011751D01*
X015170Y011909D02*
X013345Y011909D01*
X013320Y012068D02*
X015170Y012068D01*
X015170Y012226D02*
X013320Y012226D01*
X013248Y012385D02*
X015170Y012385D01*
X015170Y012543D02*
X013089Y012543D01*
X013062Y012690D02*
X013320Y012948D01*
X013320Y013312D01*
X013062Y013570D01*
X012698Y013570D01*
X012440Y013312D01*
X012440Y012948D01*
X012698Y012690D01*
X013062Y012690D01*
X013074Y012702D02*
X015170Y012702D01*
X015170Y012860D02*
X013232Y012860D01*
X013320Y013019D02*
X015170Y013019D01*
X015170Y013177D02*
X013320Y013177D01*
X013297Y013336D02*
X015170Y013336D01*
X015170Y013494D02*
X013138Y013494D01*
X012622Y013494D02*
X012138Y013494D01*
X012062Y013570D02*
X011698Y013570D01*
X011440Y013312D01*
X011440Y012948D01*
X011698Y012690D01*
X012062Y012690D01*
X012320Y012948D01*
X012320Y013312D01*
X012062Y013570D01*
X012297Y013336D02*
X012463Y013336D01*
X012440Y013177D02*
X012320Y013177D01*
X012320Y013019D02*
X012440Y013019D01*
X012528Y012860D02*
X012232Y012860D01*
X012074Y012702D02*
X012686Y012702D01*
X012671Y012543D02*
X012089Y012543D01*
X012248Y012385D02*
X012512Y012385D01*
X012440Y012226D02*
X012320Y012226D01*
X012320Y012068D02*
X012440Y012068D01*
X012479Y011909D02*
X012281Y011909D01*
X012123Y011751D02*
X012637Y011751D01*
X012698Y011570D02*
X012440Y011312D01*
X012440Y010948D01*
X012698Y010690D01*
X013062Y010690D01*
X013320Y010948D01*
X013320Y011312D01*
X013062Y011570D01*
X012698Y011570D01*
X012561Y011434D02*
X012199Y011434D01*
X012320Y011312D02*
X012062Y011570D01*
X011698Y011570D01*
X011440Y011312D01*
X011440Y010948D01*
X011698Y010690D01*
X012062Y010690D01*
X012320Y010948D01*
X012320Y011312D01*
X012320Y011275D02*
X012440Y011275D01*
X012440Y011117D02*
X012320Y011117D01*
X012320Y010958D02*
X012440Y010958D01*
X012588Y010800D02*
X012172Y010800D01*
X011588Y010800D02*
X009454Y010800D01*
X009296Y010958D02*
X011440Y010958D01*
X011440Y011117D02*
X009300Y011117D01*
X009300Y011275D02*
X011440Y011275D01*
X011561Y011434D02*
X009270Y011434D01*
X009112Y011592D02*
X013124Y011592D01*
X013199Y011434D02*
X013283Y011434D01*
X013320Y011275D02*
X013441Y011275D01*
X013320Y011117D02*
X013600Y011117D01*
X013758Y010958D02*
X013320Y010958D01*
X013172Y010800D02*
X013917Y010800D01*
X014075Y010641D02*
X009613Y010641D01*
X009771Y010483D02*
X014234Y010483D01*
X014392Y010324D02*
X009930Y010324D01*
X010088Y010166D02*
X014551Y010166D01*
X014709Y010007D02*
X010247Y010007D01*
X010405Y009849D02*
X014740Y009849D01*
X015630Y009849D02*
X015680Y009849D01*
X015680Y010007D02*
X015630Y010007D01*
X015630Y010166D02*
X015680Y010166D01*
X015680Y010324D02*
X015630Y010324D01*
X015630Y010483D02*
X015680Y010483D01*
X015680Y010641D02*
X015630Y010641D01*
X015630Y010800D02*
X015680Y010800D01*
X015680Y010958D02*
X015630Y010958D01*
X015630Y011117D02*
X015680Y011117D01*
X015680Y011275D02*
X015630Y011275D01*
X015630Y011434D02*
X015680Y011434D01*
X015680Y011592D02*
X015630Y011592D01*
X015630Y011751D02*
X015680Y011751D01*
X015680Y011909D02*
X015630Y011909D01*
X015630Y012068D02*
X015680Y012068D01*
X015680Y012226D02*
X015630Y012226D01*
X015630Y012385D02*
X015680Y012385D01*
X015680Y012543D02*
X015630Y012543D01*
X015630Y012702D02*
X015680Y012702D01*
X015680Y012860D02*
X015630Y012860D01*
X015630Y013019D02*
X015680Y013019D01*
X015680Y013177D02*
X015630Y013177D01*
X015630Y013336D02*
X015680Y013336D01*
X015680Y013494D02*
X015630Y013494D01*
X015630Y013653D02*
X015680Y013653D01*
X015680Y013811D02*
X015630Y013811D01*
X015630Y013970D02*
X015680Y013970D01*
X015680Y014128D02*
X015630Y014128D01*
X015630Y014287D02*
X015680Y014287D01*
X015680Y014445D02*
X015630Y014445D01*
X015630Y014604D02*
X015680Y014604D01*
X015680Y014762D02*
X015630Y014762D01*
X015630Y014921D02*
X015680Y014921D01*
X015680Y015079D02*
X015630Y015079D01*
X015630Y015180D02*
X015680Y015180D01*
X015680Y000180D01*
X015630Y000180D01*
X015630Y015180D01*
X015170Y014946D02*
X000410Y014946D01*
X000410Y000410D01*
X015170Y000410D01*
X015170Y014946D01*
X015170Y014921D02*
X000410Y014921D01*
X000410Y014762D02*
X015170Y014762D01*
X015170Y014604D02*
X000410Y014604D01*
X000410Y014445D02*
X015170Y014445D01*
X015170Y014287D02*
X000410Y014287D01*
X000410Y014128D02*
X015170Y014128D01*
X015170Y013970D02*
X009134Y013970D01*
X009054Y014050D02*
X008706Y014050D01*
X008460Y013804D01*
X008460Y013456D01*
X008704Y013212D01*
X008642Y013186D01*
X008524Y013068D01*
X008460Y012914D01*
X008460Y012746D01*
X008524Y012592D01*
X008642Y012474D01*
X008796Y012410D01*
X008964Y012410D01*
X009118Y012474D01*
X009236Y012592D01*
X009300Y012746D01*
X009300Y012914D01*
X009236Y013068D01*
X009118Y013186D01*
X009056Y013212D01*
X009300Y013456D01*
X009300Y013804D01*
X009054Y014050D01*
X009293Y013811D02*
X015170Y013811D01*
X015170Y013653D02*
X009300Y013653D01*
X009300Y013494D02*
X011622Y013494D01*
X011463Y013336D02*
X009179Y013336D01*
X009127Y013177D02*
X011440Y013177D01*
X011440Y013019D02*
X009257Y013019D01*
X009300Y012860D02*
X011528Y012860D01*
X011686Y012702D02*
X009281Y012702D01*
X009187Y012543D02*
X011671Y012543D01*
X011512Y012385D02*
X006378Y012385D01*
X006370Y012376D02*
X006550Y012556D01*
X006550Y012904D01*
X006304Y013150D01*
X005956Y013150D01*
X005710Y012904D01*
X005710Y012556D01*
X005956Y012310D01*
X005990Y012310D01*
X005990Y011150D01*
X005956Y011150D01*
X005710Y010904D01*
X005710Y010556D01*
X005956Y010310D01*
X006304Y010310D01*
X006550Y010556D01*
X006550Y010904D01*
X006370Y011084D01*
X006370Y012376D01*
X006370Y012226D02*
X008957Y012226D01*
X008799Y012068D02*
X006370Y012068D01*
X006370Y011909D02*
X008640Y011909D01*
X008482Y011751D02*
X006370Y011751D01*
X006370Y011592D02*
X008323Y011592D01*
X008165Y011434D02*
X006370Y011434D01*
X006370Y011275D02*
X008006Y011275D01*
X007848Y011117D02*
X006370Y011117D01*
X006496Y010958D02*
X007689Y010958D01*
X007531Y010800D02*
X006550Y010800D01*
X006550Y010641D02*
X007372Y010641D01*
X007214Y010483D02*
X006476Y010483D01*
X006318Y010324D02*
X007055Y010324D01*
X006897Y010166D02*
X000410Y010166D01*
X000410Y010324D02*
X004942Y010324D01*
X004956Y010310D02*
X005304Y010310D01*
X005550Y010556D01*
X005550Y010904D01*
X005304Y011150D01*
X004956Y011150D01*
X004801Y010995D01*
X003272Y010995D01*
X003257Y011010D01*
X003136Y011060D01*
X002624Y011060D01*
X002503Y011010D01*
X002410Y010917D01*
X002360Y010796D01*
X002360Y010664D01*
X002410Y010543D01*
X002503Y010450D01*
X002624Y010400D01*
X003136Y010400D01*
X003257Y010450D01*
X003350Y010543D01*
X003380Y010615D01*
X004710Y010615D01*
X004710Y010556D01*
X004956Y010310D01*
X004784Y010483D02*
X003289Y010483D01*
X002471Y010483D02*
X000410Y010483D01*
X000410Y010641D02*
X002370Y010641D01*
X002362Y010800D02*
X000410Y010800D01*
X000410Y010958D02*
X002451Y010958D01*
X002624Y012400D02*
X003136Y012400D01*
X003257Y012450D01*
X003350Y012543D01*
X003380Y012615D01*
X004710Y012615D01*
X004710Y012556D01*
X004956Y012310D01*
X005304Y012310D01*
X005550Y012556D01*
X005550Y012904D01*
X005304Y013150D01*
X004956Y013150D01*
X004801Y012995D01*
X003272Y012995D01*
X003257Y013010D01*
X003136Y013060D01*
X002624Y013060D01*
X002503Y013010D01*
X002410Y012917D01*
X002360Y012796D01*
X002360Y012664D01*
X002410Y012543D01*
X002503Y012450D01*
X002624Y012400D01*
X002410Y012543D02*
X000410Y012543D01*
X000410Y012385D02*
X004882Y012385D01*
X004723Y012543D02*
X003350Y012543D01*
X003236Y013019D02*
X004825Y013019D01*
X005435Y013019D02*
X005825Y013019D01*
X005710Y012860D02*
X005550Y012860D01*
X005550Y012702D02*
X005710Y012702D01*
X005723Y012543D02*
X005537Y012543D01*
X005378Y012385D02*
X005882Y012385D01*
X005990Y012226D02*
X000410Y012226D01*
X000410Y012068D02*
X005990Y012068D01*
X005990Y011909D02*
X000410Y011909D01*
X000410Y011751D02*
X005990Y011751D01*
X005990Y011592D02*
X000410Y011592D01*
X000410Y011434D02*
X005990Y011434D01*
X005990Y011275D02*
X000410Y011275D01*
X000410Y011117D02*
X004923Y011117D01*
X005337Y011117D02*
X005923Y011117D01*
X005764Y010958D02*
X005496Y010958D01*
X005550Y010800D02*
X005710Y010800D01*
X005710Y010641D02*
X005550Y010641D01*
X005476Y010483D02*
X005784Y010483D01*
X005942Y010324D02*
X005318Y010324D01*
X006263Y009532D02*
X000410Y009532D01*
X000410Y009690D02*
X006421Y009690D01*
X006580Y009849D02*
X000410Y009849D01*
X000410Y010007D02*
X006738Y010007D01*
X006104Y009373D02*
X000410Y009373D01*
X000410Y009215D02*
X005946Y009215D01*
X005787Y009056D02*
X000410Y009056D01*
X000410Y008898D02*
X005629Y008898D01*
X005470Y008739D02*
X000410Y008739D01*
X000410Y008581D02*
X005365Y008581D01*
X006408Y007471D02*
X009245Y007471D01*
X009404Y007313D02*
X006566Y007313D01*
X006725Y007154D02*
X009562Y007154D01*
X009721Y006996D02*
X006745Y006996D01*
X006745Y006837D02*
X009879Y006837D01*
X010164Y006520D02*
X012678Y006520D01*
X012673Y006533D02*
X012735Y006383D01*
X012849Y006269D01*
X012999Y006207D01*
X013161Y006207D01*
X013311Y006269D01*
X013425Y006383D01*
X013487Y006533D01*
X013487Y006695D01*
X013425Y006844D01*
X013311Y006959D01*
X013161Y007021D01*
X012999Y007021D01*
X012849Y006959D01*
X012735Y006844D01*
X012673Y006695D01*
X012673Y006533D01*
X012673Y006679D02*
X012634Y006679D01*
X012649Y006837D02*
X012732Y006837D01*
X012649Y006996D02*
X012937Y006996D01*
X013223Y006996D02*
X013346Y006996D01*
X013428Y006837D02*
X013504Y006837D01*
X013487Y006679D02*
X013615Y006679D01*
X013615Y006520D02*
X013482Y006520D01*
X013468Y006362D02*
X013403Y006362D01*
X013365Y006203D02*
X012705Y006203D01*
X012728Y006180D02*
X012646Y006262D01*
X011546Y006262D01*
X011464Y006180D01*
X011464Y005276D01*
X011546Y005194D01*
X012646Y005194D01*
X012728Y005276D01*
X012728Y006180D01*
X012728Y006045D02*
X013365Y006045D01*
X013365Y005886D02*
X012728Y005886D01*
X012728Y005728D02*
X013365Y005728D01*
X013300Y005569D02*
X012728Y005569D01*
X012728Y005411D02*
X013142Y005411D01*
X012983Y005252D02*
X012704Y005252D01*
X012825Y005094D02*
X005987Y005094D01*
X006146Y005252D02*
X011488Y005252D01*
X011464Y005411D02*
X006304Y005411D01*
X006463Y005569D02*
X011464Y005569D01*
X011464Y005728D02*
X006621Y005728D01*
X006745Y005886D02*
X009359Y005886D01*
X009210Y006045D02*
X006745Y006045D01*
X006745Y006203D02*
X009210Y006203D01*
X009210Y006362D02*
X006745Y006362D01*
X006745Y006520D02*
X009305Y006520D01*
X009464Y006679D02*
X006745Y006679D01*
X006365Y006679D02*
X006296Y006679D01*
X006365Y006837D02*
X005043Y006837D01*
X005050Y006996D02*
X006346Y006996D01*
X005864Y006679D02*
X004956Y006679D01*
X004934Y006203D02*
X005610Y006203D01*
X005610Y006045D02*
X005034Y006045D01*
X005050Y005886D02*
X005492Y005886D01*
X005334Y005728D02*
X004997Y005728D01*
X004897Y005240D02*
X005384Y005240D01*
X005904Y005760D01*
X006116Y005760D01*
X005476Y005120D01*
X005003Y005120D01*
X004992Y005145D01*
X004897Y005240D01*
X005396Y005252D02*
X005608Y005252D01*
X005554Y005411D02*
X005767Y005411D01*
X005713Y005569D02*
X005925Y005569D01*
X005871Y005728D02*
X006084Y005728D01*
X005610Y006362D02*
X003267Y006362D01*
X003109Y006520D02*
X005705Y006520D01*
X005829Y004935D02*
X012666Y004935D01*
X012508Y004777D02*
X005670Y004777D01*
X005803Y004618D02*
X004895Y004618D01*
X005610Y004425D02*
X005610Y004035D01*
X005885Y003760D01*
X006275Y003760D01*
X006550Y004035D01*
X006550Y004425D01*
X006275Y004700D01*
X005885Y004700D01*
X005610Y004425D01*
X005645Y004460D02*
X000410Y004460D01*
X000410Y004618D02*
X000965Y004618D01*
X000842Y004777D02*
X000410Y004777D01*
X000410Y004935D02*
X000810Y004935D01*
X000846Y005094D02*
X000410Y005094D01*
X000410Y005252D02*
X000975Y005252D01*
X001620Y005411D02*
X003681Y005411D01*
X003522Y005569D02*
X001791Y005569D01*
X001997Y005728D02*
X003364Y005728D01*
X003205Y005886D02*
X002050Y005886D01*
X002034Y006045D02*
X003047Y006045D01*
X002888Y006203D02*
X001934Y006203D01*
X001956Y006679D02*
X002413Y006679D01*
X002254Y006837D02*
X002043Y006837D01*
X002050Y006996D02*
X002096Y006996D01*
X002475Y007154D02*
X003877Y007154D01*
X003810Y006996D02*
X002633Y006996D01*
X002792Y006837D02*
X003817Y006837D01*
X003904Y006679D02*
X002950Y006679D01*
X002730Y006362D02*
X000410Y006362D01*
X000410Y006520D02*
X002571Y006520D01*
X003426Y006203D02*
X003926Y006203D01*
X003826Y006045D02*
X003584Y006045D01*
X003743Y005886D02*
X003810Y005886D01*
X003839Y005252D02*
X001885Y005252D01*
X002014Y005094D02*
X003846Y005094D01*
X003810Y004935D02*
X002050Y004935D01*
X002018Y004777D02*
X003842Y004777D01*
X003965Y004618D02*
X001895Y004618D01*
X000410Y004301D02*
X005610Y004301D01*
X005610Y004143D02*
X000410Y004143D01*
X000410Y003984D02*
X005661Y003984D01*
X005820Y003826D02*
X000410Y003826D01*
X000410Y003667D02*
X011398Y003667D01*
X011240Y003509D02*
X000410Y003509D01*
X000410Y003350D02*
X011240Y003350D01*
X011240Y003192D02*
X000410Y003192D01*
X000410Y003033D02*
X011240Y003033D01*
X011240Y002875D02*
X000410Y002875D01*
X000410Y002716D02*
X011240Y002716D01*
X010938Y002558D02*
X010017Y002558D01*
X010150Y002082D02*
X010790Y002082D01*
X010909Y001924D02*
X010038Y001924D01*
X009880Y001765D02*
X015170Y001765D01*
X015170Y001607D02*
X000410Y001607D01*
X000410Y001765D02*
X005880Y001765D01*
X005885Y001760D02*
X006275Y001760D01*
X006550Y002035D01*
X006550Y002425D01*
X006275Y002700D01*
X005885Y002700D01*
X005610Y002425D01*
X005610Y002035D01*
X005885Y001760D01*
X005722Y001924D02*
X000410Y001924D01*
X000410Y002082D02*
X005610Y002082D01*
X005610Y002241D02*
X000410Y002241D01*
X000410Y002399D02*
X005610Y002399D01*
X005743Y002558D02*
X000410Y002558D01*
X000410Y001448D02*
X015170Y001448D01*
X015170Y001290D02*
X000410Y001290D01*
X000410Y001131D02*
X015170Y001131D01*
X015170Y000973D02*
X000410Y000973D01*
X000410Y000814D02*
X015170Y000814D01*
X015170Y000656D02*
X000410Y000656D01*
X000410Y000497D02*
X015170Y000497D01*
X015630Y000497D02*
X015680Y000497D01*
X015680Y000339D02*
X015630Y000339D01*
X015630Y000180D02*
X015680Y000180D01*
X015680Y000656D02*
X015630Y000656D01*
X015630Y000814D02*
X015680Y000814D01*
X015680Y000973D02*
X015630Y000973D01*
X015630Y001131D02*
X015680Y001131D01*
X015680Y001290D02*
X015630Y001290D01*
X015630Y001448D02*
X015680Y001448D01*
X015680Y001607D02*
X015630Y001607D01*
X015630Y001765D02*
X015680Y001765D01*
X015680Y001924D02*
X015630Y001924D01*
X015630Y002082D02*
X015680Y002082D01*
X015680Y002241D02*
X015630Y002241D01*
X015630Y002399D02*
X015680Y002399D01*
X015680Y002558D02*
X015630Y002558D01*
X015630Y002716D02*
X015680Y002716D01*
X015680Y002875D02*
X015630Y002875D01*
X015630Y003033D02*
X015680Y003033D01*
X015680Y003192D02*
X015630Y003192D01*
X015630Y003350D02*
X015680Y003350D01*
X015680Y003509D02*
X015630Y003509D01*
X015630Y003667D02*
X015680Y003667D01*
X015680Y003826D02*
X015630Y003826D01*
X015630Y003984D02*
X015680Y003984D01*
X015680Y004143D02*
X015630Y004143D01*
X015630Y004301D02*
X015680Y004301D01*
X015680Y004460D02*
X015630Y004460D01*
X015630Y004618D02*
X015680Y004618D01*
X015680Y004777D02*
X015630Y004777D01*
X015630Y004935D02*
X015680Y004935D01*
X015680Y005094D02*
X015630Y005094D01*
X015630Y005252D02*
X015680Y005252D01*
X015680Y005411D02*
X015630Y005411D01*
X015630Y005569D02*
X015680Y005569D01*
X015680Y005728D02*
X015630Y005728D01*
X015630Y005886D02*
X015680Y005886D01*
X015680Y006045D02*
X015630Y006045D01*
X015630Y006203D02*
X015680Y006203D01*
X015680Y006362D02*
X015630Y006362D01*
X015630Y006520D02*
X015680Y006520D01*
X015680Y006679D02*
X015630Y006679D01*
X015630Y006837D02*
X015680Y006837D01*
X015680Y006996D02*
X015630Y006996D01*
X015630Y007154D02*
X015680Y007154D01*
X015680Y007313D02*
X015630Y007313D01*
X015630Y007471D02*
X015680Y007471D01*
X015680Y007630D02*
X015630Y007630D01*
X015630Y007788D02*
X015680Y007788D01*
X015680Y007947D02*
X015630Y007947D01*
X015630Y008105D02*
X015680Y008105D01*
X015680Y008264D02*
X015630Y008264D01*
X015630Y008422D02*
X015680Y008422D01*
X015680Y008581D02*
X015630Y008581D01*
X015630Y008739D02*
X015680Y008739D01*
X015680Y008898D02*
X015630Y008898D01*
X015630Y009056D02*
X015680Y009056D01*
X015680Y009215D02*
X015630Y009215D01*
X015630Y009373D02*
X015680Y009373D01*
X015680Y009532D02*
X015630Y009532D01*
X015630Y009690D02*
X015680Y009690D01*
X015170Y008105D02*
X014499Y008105D01*
X014340Y007947D02*
X015170Y007947D01*
X015170Y007788D02*
X014182Y007788D01*
X014023Y007630D02*
X015170Y007630D01*
X015170Y007471D02*
X013865Y007471D01*
X013566Y007313D02*
X015170Y007313D01*
X015170Y007154D02*
X013725Y007154D01*
X013883Y006996D02*
X015170Y006996D01*
X015170Y006837D02*
X013995Y006837D01*
X013995Y006679D02*
X015170Y006679D01*
X015170Y006520D02*
X013995Y006520D01*
X013995Y006362D02*
X015170Y006362D01*
X015170Y006203D02*
X014870Y006203D01*
X014893Y006045D02*
X015170Y006045D01*
X015170Y005886D02*
X014893Y005886D01*
X014893Y005728D02*
X015170Y005728D01*
X015170Y005569D02*
X014893Y005569D01*
X014893Y005411D02*
X015170Y005411D01*
X015170Y005252D02*
X014869Y005252D01*
X015170Y005094D02*
X013362Y005094D01*
X013521Y005252D02*
X013653Y005252D01*
X013204Y004935D02*
X015170Y004935D01*
X015170Y004777D02*
X013045Y004777D01*
X012887Y004618D02*
X015170Y004618D01*
X015170Y004460D02*
X014928Y004460D01*
X014942Y004445D02*
X014835Y004552D01*
X014696Y004610D01*
X014064Y004610D01*
X013925Y004552D01*
X013818Y004445D01*
X013760Y004306D01*
X013760Y004154D01*
X013818Y004015D01*
X013925Y003908D01*
X014064Y003850D01*
X014240Y003850D01*
X014240Y002610D01*
X014064Y002610D01*
X013925Y002552D01*
X013818Y002445D01*
X013760Y002306D01*
X013760Y002154D01*
X013818Y002015D01*
X013925Y001908D01*
X014064Y001850D01*
X014696Y001850D01*
X014835Y001908D01*
X014942Y002015D01*
X015000Y002154D01*
X015000Y002306D01*
X014942Y002445D01*
X014835Y002552D01*
X014696Y002610D01*
X014620Y002610D01*
X014620Y003850D01*
X014696Y003850D01*
X014835Y003908D01*
X014942Y004015D01*
X015000Y004154D01*
X015000Y004306D01*
X014942Y004445D01*
X015000Y004301D02*
X015170Y004301D01*
X015170Y004143D02*
X014995Y004143D01*
X014911Y003984D02*
X015170Y003984D01*
X015170Y003826D02*
X014620Y003826D01*
X014620Y003667D02*
X015170Y003667D01*
X015170Y003509D02*
X014620Y003509D01*
X014620Y003350D02*
X015170Y003350D01*
X015170Y003192D02*
X014620Y003192D01*
X014620Y003033D02*
X015170Y003033D01*
X015170Y002875D02*
X014620Y002875D01*
X014620Y002716D02*
X015170Y002716D01*
X015170Y002558D02*
X014822Y002558D01*
X014961Y002399D02*
X015170Y002399D01*
X015170Y002241D02*
X015000Y002241D01*
X014970Y002082D02*
X015170Y002082D01*
X015170Y001924D02*
X014851Y001924D01*
X014240Y002716D02*
X011620Y002716D01*
X011620Y002875D02*
X014240Y002875D01*
X014240Y003033D02*
X011620Y003033D01*
X011620Y003192D02*
X014240Y003192D01*
X014240Y003350D02*
X011620Y003350D01*
X011777Y003509D02*
X014240Y003509D01*
X014240Y003667D02*
X011936Y003667D01*
X012094Y003826D02*
X014240Y003826D01*
X013849Y003984D02*
X012253Y003984D01*
X012411Y004143D02*
X013765Y004143D01*
X013760Y004301D02*
X012570Y004301D01*
X012728Y004460D02*
X013832Y004460D01*
X012349Y004618D02*
X009957Y004618D01*
X009403Y004618D02*
X006357Y004618D01*
X006515Y004460D02*
X009245Y004460D01*
X009210Y004301D02*
X006550Y004301D01*
X006550Y004143D02*
X009210Y004143D01*
X009261Y003984D02*
X006499Y003984D01*
X006340Y003826D02*
X009420Y003826D01*
X009940Y003826D02*
X011557Y003826D01*
X012000Y004301D02*
X012032Y004301D01*
X011928Y004460D02*
X012191Y004460D01*
X010849Y003984D02*
X010099Y003984D01*
X009343Y002558D02*
X006417Y002558D01*
X006550Y002399D02*
X009210Y002399D01*
X009210Y002241D02*
X006550Y002241D01*
X006550Y002082D02*
X009210Y002082D01*
X009322Y001924D02*
X006438Y001924D01*
X006280Y001765D02*
X009480Y001765D01*
X011851Y001924D02*
X013909Y001924D01*
X013790Y002082D02*
X011970Y002082D01*
X012000Y002241D02*
X013760Y002241D01*
X013799Y002399D02*
X011961Y002399D01*
X011822Y002558D02*
X013938Y002558D01*
X011464Y005886D02*
X010001Y005886D01*
X010150Y006045D02*
X011464Y006045D01*
X011487Y006203D02*
X010150Y006203D01*
X010150Y006362D02*
X012757Y006362D01*
X012649Y007788D02*
X013644Y007788D01*
X013670Y008739D02*
X013195Y008739D01*
X012965Y008739D02*
X012687Y008739D01*
X012728Y008898D02*
X013629Y008898D01*
X013629Y009056D02*
X012728Y009056D01*
X012728Y009215D02*
X013629Y009215D01*
X013629Y009373D02*
X012728Y009373D01*
X012728Y009532D02*
X013629Y009532D01*
X013635Y009690D02*
X012722Y009690D01*
X011637Y011751D02*
X009019Y011751D01*
X008460Y011117D02*
X008385Y011117D01*
X008227Y010958D02*
X008558Y010958D01*
X008573Y012543D02*
X006537Y012543D01*
X006550Y012702D02*
X008479Y012702D01*
X008460Y012860D02*
X006550Y012860D01*
X006435Y013019D02*
X008503Y013019D01*
X008633Y013177D02*
X000410Y013177D01*
X000410Y013019D02*
X002524Y013019D01*
X002387Y012860D02*
X000410Y012860D01*
X000410Y012702D02*
X002360Y012702D01*
X000410Y013336D02*
X008581Y013336D01*
X008460Y013494D02*
X000410Y013494D01*
X000410Y013653D02*
X008460Y013653D01*
X008467Y013811D02*
X000410Y013811D01*
X000410Y013970D02*
X008626Y013970D01*
X007819Y008898D02*
X007791Y008898D01*
X007633Y008739D02*
X007977Y008739D01*
X008136Y008581D02*
X007474Y008581D01*
X007316Y008422D02*
X008294Y008422D01*
X008453Y008264D02*
X007157Y008264D01*
X004002Y008264D02*
X001858Y008264D01*
X002009Y008105D02*
X003851Y008105D01*
X003810Y007947D02*
X002050Y007947D01*
X002022Y007788D02*
X003838Y007788D01*
X003953Y007630D02*
X001999Y007630D01*
X001779Y007313D02*
X000410Y007313D01*
X000410Y007471D02*
X001620Y007471D01*
M02*
