%
M48
M72
T01C0.0240
T02C0.0320
T03C0.0354
T04C0.0400
%
T01
X2880Y10730
X2880Y12730
T02
X1430Y4930
X1430Y5930
X1430Y6930
X1430Y7930
X4430Y7930
X4430Y6930
X4430Y5930
X4430Y4930
X6080Y4230
X6080Y2230
X9680Y2230
X11380Y2230
X11380Y4230
X9680Y4230
X9680Y6230
X9680Y8230
X8880Y10230
X8880Y11230
X8880Y12830
X8880Y13630
X6130Y12730
X5130Y12730
X5130Y10730
X6130Y10730
X6080Y8230
X6080Y6230
X14380Y4230
X14380Y2230
T03
X13080Y6614
X13080Y8346
T04
X12880Y11130
X12880Y12130
X12880Y13130
X11880Y13130
X11880Y12130
X11880Y11130
M30
