G75*
%MOIN*%
%OFA0B0*%
%FSLAX24Y24*%
%IPPOS*%
%LPD*%
%AMOC8*
5,1,8,0,0,1.08239X$1,22.5*
%
%ADD10C,0.0000*%
%ADD11C,0.0030*%
%ADD12C,0.0060*%
%ADD13C,0.0050*%
%ADD14C,0.0120*%
%ADD15R,0.0150X0.0700*%
%ADD16R,0.0550X0.0200*%
%ADD17C,0.0020*%
%ADD18R,0.0340X0.0240*%
%ADD19C,0.0040*%
D10*
X000180Y000180D02*
X000180Y015176D01*
X015400Y015176D01*
X015400Y000180D01*
X000180Y000180D01*
X012903Y006614D02*
X012905Y006640D01*
X012911Y006666D01*
X012921Y006691D01*
X012934Y006714D01*
X012950Y006734D01*
X012970Y006752D01*
X012992Y006767D01*
X013015Y006779D01*
X013041Y006787D01*
X013067Y006791D01*
X013093Y006791D01*
X013119Y006787D01*
X013145Y006779D01*
X013169Y006767D01*
X013190Y006752D01*
X013210Y006734D01*
X013226Y006714D01*
X013239Y006691D01*
X013249Y006666D01*
X013255Y006640D01*
X013257Y006614D01*
X013255Y006588D01*
X013249Y006562D01*
X013239Y006537D01*
X013226Y006514D01*
X013210Y006494D01*
X013190Y006476D01*
X013168Y006461D01*
X013145Y006449D01*
X013119Y006441D01*
X013093Y006437D01*
X013067Y006437D01*
X013041Y006441D01*
X013015Y006449D01*
X012991Y006461D01*
X012970Y006476D01*
X012950Y006494D01*
X012934Y006514D01*
X012921Y006537D01*
X012911Y006562D01*
X012905Y006588D01*
X012903Y006614D01*
X012903Y008346D02*
X012905Y008372D01*
X012911Y008398D01*
X012921Y008423D01*
X012934Y008446D01*
X012950Y008466D01*
X012970Y008484D01*
X012992Y008499D01*
X013015Y008511D01*
X013041Y008519D01*
X013067Y008523D01*
X013093Y008523D01*
X013119Y008519D01*
X013145Y008511D01*
X013169Y008499D01*
X013190Y008484D01*
X013210Y008466D01*
X013226Y008446D01*
X013239Y008423D01*
X013249Y008398D01*
X013255Y008372D01*
X013257Y008346D01*
X013255Y008320D01*
X013249Y008294D01*
X013239Y008269D01*
X013226Y008246D01*
X013210Y008226D01*
X013190Y008208D01*
X013168Y008193D01*
X013145Y008181D01*
X013119Y008173D01*
X013093Y008169D01*
X013067Y008169D01*
X013041Y008173D01*
X013015Y008181D01*
X012991Y008193D01*
X012970Y008208D01*
X012950Y008226D01*
X012934Y008246D01*
X012921Y008269D01*
X012911Y008294D01*
X012905Y008320D01*
X012903Y008346D01*
D11*
X013645Y010645D02*
X013645Y010935D01*
X013790Y010935D01*
X013838Y010887D01*
X013838Y010790D01*
X013790Y010742D01*
X013645Y010742D01*
X013940Y010790D02*
X014085Y010790D01*
X014133Y010742D01*
X014133Y010693D01*
X014085Y010645D01*
X013940Y010645D01*
X013940Y010935D01*
X014085Y010935D01*
X014133Y010887D01*
X014133Y010838D01*
X014085Y010790D01*
X014234Y010838D02*
X014331Y010935D01*
X014331Y010645D01*
X014234Y010645D02*
X014428Y010645D01*
X014479Y011125D02*
X014431Y011173D01*
X014431Y011367D01*
X014479Y011415D01*
X014576Y011415D01*
X014624Y011367D01*
X014624Y011173D01*
X014576Y011125D01*
X014479Y011125D01*
X014330Y011173D02*
X014330Y011222D01*
X014281Y011270D01*
X014184Y011270D01*
X014136Y011318D01*
X014136Y011367D01*
X014184Y011415D01*
X014281Y011415D01*
X014330Y011367D01*
X014330Y011173D02*
X014281Y011125D01*
X014184Y011125D01*
X014136Y011173D01*
X014036Y011125D02*
X013940Y011125D01*
X013988Y011125D02*
X013988Y011415D01*
X013940Y011415D02*
X014036Y011415D01*
X013838Y011415D02*
X013838Y011125D01*
X013645Y011125D02*
X013645Y011415D01*
X013742Y011318D01*
X013838Y011415D01*
X013940Y011745D02*
X014085Y011745D01*
X014133Y011793D01*
X014133Y011842D01*
X014085Y011890D01*
X013940Y011890D01*
X013838Y011890D02*
X013790Y011842D01*
X013645Y011842D01*
X013645Y011745D02*
X013645Y012035D01*
X013790Y012035D01*
X013838Y011987D01*
X013838Y011890D01*
X013940Y011745D02*
X013940Y012035D01*
X014085Y012035D01*
X014133Y011987D01*
X014133Y011938D01*
X014085Y011890D01*
X014234Y011987D02*
X014283Y012035D01*
X014379Y012035D01*
X014428Y011987D01*
X014428Y011938D01*
X014234Y011745D01*
X014428Y011745D01*
X014428Y012225D02*
X014283Y012370D01*
X014234Y012322D02*
X014428Y012515D01*
X014234Y012515D02*
X014234Y012225D01*
X014133Y012273D02*
X014085Y012225D01*
X013988Y012225D01*
X013940Y012273D01*
X013940Y012467D01*
X013988Y012515D01*
X014085Y012515D01*
X014133Y012467D01*
X013838Y012467D02*
X013790Y012515D01*
X013693Y012515D01*
X013645Y012467D01*
X013645Y012418D01*
X013693Y012370D01*
X013790Y012370D01*
X013838Y012322D01*
X013838Y012273D01*
X013790Y012225D01*
X013693Y012225D01*
X013645Y012273D01*
X013645Y012845D02*
X013645Y013135D01*
X013790Y013135D01*
X013838Y013087D01*
X013838Y012990D01*
X013790Y012942D01*
X013645Y012942D01*
X013940Y012990D02*
X014085Y012990D01*
X014133Y012942D01*
X014133Y012893D01*
X014085Y012845D01*
X013940Y012845D01*
X013940Y013135D01*
X014085Y013135D01*
X014133Y013087D01*
X014133Y013038D01*
X014085Y012990D01*
X014234Y012990D02*
X014234Y013135D01*
X014428Y013135D01*
X014379Y013038D02*
X014428Y012990D01*
X014428Y012893D01*
X014379Y012845D01*
X014283Y012845D01*
X014234Y012893D01*
X014234Y012990D02*
X014331Y013038D01*
X014379Y013038D01*
X014331Y013325D02*
X014331Y013615D01*
X014234Y013615D02*
X014428Y013615D01*
X014133Y013567D02*
X014085Y013615D01*
X013988Y013615D01*
X013940Y013567D01*
X013940Y013518D01*
X013988Y013470D01*
X014085Y013470D01*
X014133Y013422D01*
X014133Y013373D01*
X014085Y013325D01*
X013988Y013325D01*
X013940Y013373D01*
X013838Y013325D02*
X013742Y013422D01*
X013790Y013422D02*
X013645Y013422D01*
X013645Y013325D02*
X013645Y013615D01*
X013790Y013615D01*
X013838Y013567D01*
X013838Y013470D01*
X013790Y013422D01*
X011172Y013188D02*
X011075Y013285D01*
X010974Y013237D02*
X010926Y013285D01*
X010781Y013285D01*
X010781Y012995D01*
X010926Y012995D01*
X010974Y013043D01*
X010974Y013237D01*
X011172Y013188D02*
X011172Y013092D01*
X011075Y012995D01*
X010680Y012995D02*
X010680Y013285D01*
X010486Y013285D02*
X010680Y012995D01*
X010486Y012995D02*
X010486Y013285D01*
X010385Y013237D02*
X010337Y013285D01*
X010240Y013285D01*
X010191Y013237D01*
X010191Y013043D01*
X010240Y012995D01*
X010337Y012995D01*
X010385Y013043D01*
X010385Y013140D01*
X010288Y013140D01*
X010092Y012995D02*
X009995Y013092D01*
X009995Y013188D01*
X010092Y013285D01*
X010165Y012515D02*
X010261Y012418D01*
X010358Y012515D01*
X010358Y012225D01*
X010459Y012273D02*
X010508Y012225D01*
X010604Y012225D01*
X010653Y012273D01*
X010653Y012467D01*
X010604Y012515D01*
X010508Y012515D01*
X010459Y012467D01*
X010459Y012273D01*
X010506Y012035D02*
X010361Y012035D01*
X010361Y011745D01*
X010361Y011842D02*
X010506Y011842D01*
X010555Y011890D01*
X010555Y011987D01*
X010506Y012035D01*
X010656Y012035D02*
X010801Y012035D01*
X010849Y011987D01*
X010849Y011938D01*
X010801Y011890D01*
X010656Y011890D01*
X010801Y011890D02*
X010849Y011842D01*
X010849Y011793D01*
X010801Y011745D01*
X010656Y011745D01*
X010656Y012035D01*
X010802Y012225D02*
X010754Y012273D01*
X010802Y012225D02*
X010899Y012225D01*
X010947Y012273D01*
X010947Y012322D01*
X010899Y012370D01*
X010802Y012370D01*
X010754Y012418D01*
X010754Y012467D01*
X010802Y012515D01*
X010899Y012515D01*
X010947Y012467D01*
X011049Y012515D02*
X011145Y012515D01*
X011097Y012515D02*
X011097Y012225D01*
X011049Y012225D02*
X011145Y012225D01*
X011095Y012035D02*
X011144Y011987D01*
X010950Y011793D01*
X010999Y011745D01*
X011095Y011745D01*
X011144Y011793D01*
X011144Y011987D01*
X011095Y012035D02*
X010999Y012035D01*
X010950Y011987D01*
X010950Y011793D01*
X010926Y011285D02*
X010829Y011285D01*
X010781Y011237D01*
X010781Y011043D01*
X010829Y010995D01*
X010926Y010995D01*
X010974Y011043D01*
X011075Y010995D02*
X011172Y011092D01*
X011172Y011188D01*
X011075Y011285D01*
X010974Y011237D02*
X010926Y011285D01*
X010680Y011237D02*
X010631Y011285D01*
X010534Y011285D01*
X010486Y011237D01*
X010486Y011043D01*
X010534Y010995D01*
X010631Y010995D01*
X010680Y011043D01*
X010385Y011092D02*
X010385Y011285D01*
X010385Y011092D02*
X010288Y010995D01*
X010191Y011092D01*
X010191Y011285D01*
X010092Y011285D02*
X009995Y011188D01*
X009995Y011092D01*
X010092Y010995D01*
X010165Y012225D02*
X010165Y012515D01*
X004315Y012640D02*
X004315Y012785D01*
X004267Y012833D01*
X004218Y012833D01*
X004170Y012785D01*
X004170Y012640D01*
X004170Y012538D02*
X004073Y012538D01*
X004025Y012490D01*
X004025Y012345D01*
X004315Y012345D01*
X004218Y012345D02*
X004218Y012490D01*
X004170Y012538D01*
X004315Y012640D02*
X004025Y012640D01*
X004025Y012785D01*
X004073Y012833D01*
X004122Y012833D01*
X004170Y012785D01*
X004170Y012934D02*
X004170Y013128D01*
X004315Y013079D02*
X004025Y013079D01*
X004170Y012934D01*
X004218Y011078D02*
X004267Y011078D01*
X004315Y011029D01*
X004315Y010933D01*
X004267Y010884D01*
X004267Y010783D02*
X004315Y010735D01*
X004315Y010590D01*
X004025Y010590D01*
X004025Y010735D01*
X004073Y010783D01*
X004122Y010783D01*
X004170Y010735D01*
X004170Y010590D01*
X004170Y010488D02*
X004218Y010440D01*
X004218Y010295D01*
X004315Y010295D02*
X004025Y010295D01*
X004025Y010440D01*
X004073Y010488D01*
X004170Y010488D01*
X004170Y010735D02*
X004218Y010783D01*
X004267Y010783D01*
X004073Y010884D02*
X004025Y010933D01*
X004025Y011029D01*
X004073Y011078D01*
X004122Y011078D01*
X004170Y011029D01*
X004218Y011078D01*
X004170Y011029D02*
X004170Y010981D01*
X004137Y003715D02*
X004322Y003715D01*
X004384Y003654D01*
X004384Y003592D01*
X004322Y003530D01*
X004137Y003530D01*
X004016Y003468D02*
X004016Y003407D01*
X003954Y003345D01*
X003830Y003345D01*
X003769Y003407D01*
X003647Y003407D02*
X003586Y003345D01*
X003462Y003345D01*
X003400Y003407D01*
X003400Y003715D01*
X003647Y003715D02*
X003647Y003407D01*
X003830Y003530D02*
X003769Y003592D01*
X003769Y003654D01*
X003830Y003715D01*
X003954Y003715D01*
X004016Y003654D01*
X004137Y003715D02*
X004137Y003345D01*
X004322Y003345D01*
X004384Y003407D01*
X004384Y003468D01*
X004322Y003530D01*
X004016Y003468D02*
X003954Y003530D01*
X003830Y003530D01*
X003892Y003115D02*
X004077Y003115D01*
X004138Y003054D01*
X004138Y002807D01*
X004077Y002745D01*
X003892Y002745D01*
X003892Y003115D01*
X003770Y003054D02*
X003770Y002930D01*
X003708Y002868D01*
X003523Y002868D01*
X003523Y002745D02*
X003523Y003115D01*
X003708Y003115D01*
X003770Y003054D01*
X003647Y002868D02*
X003770Y002745D01*
X003769Y002515D02*
X003707Y002454D01*
X003769Y002515D02*
X003893Y002515D01*
X003954Y002454D01*
X003954Y002392D01*
X003707Y002145D01*
X003954Y002145D01*
X004076Y002207D02*
X004323Y002454D01*
X004323Y002207D01*
X004261Y002145D01*
X004137Y002145D01*
X004076Y002207D01*
X004076Y002454D01*
X004137Y002515D01*
X004261Y002515D01*
X004323Y002454D01*
X004444Y002392D02*
X004567Y002515D01*
X004567Y002145D01*
X004444Y002145D02*
X004691Y002145D01*
X004812Y002330D02*
X005059Y002330D01*
X004997Y002145D02*
X004997Y002515D01*
X004812Y002330D01*
X004628Y001315D02*
X004567Y001315D01*
X004628Y001315D02*
X004628Y000945D01*
X004567Y000945D02*
X004690Y000945D01*
X004812Y000945D02*
X004874Y000945D01*
X004874Y001007D01*
X004812Y001007D01*
X004812Y000945D01*
X004996Y001007D02*
X004996Y001192D01*
X004996Y001007D02*
X005058Y000945D01*
X005243Y000945D01*
X005243Y001192D01*
X005365Y001130D02*
X005426Y001192D01*
X005612Y001192D01*
X005550Y001068D02*
X005426Y001068D01*
X005365Y001130D01*
X005365Y000945D02*
X005550Y000945D01*
X005612Y001007D01*
X005550Y001068D01*
X004445Y001068D02*
X004260Y001068D01*
X004198Y001007D01*
X004260Y000945D01*
X004445Y000945D01*
X004445Y001130D01*
X004384Y001192D01*
X004260Y001192D01*
X004077Y001192D02*
X003892Y001192D01*
X003830Y001130D01*
X003830Y001007D01*
X003892Y000945D01*
X004077Y000945D01*
X004077Y001315D01*
X003709Y001130D02*
X003709Y001007D01*
X003647Y000945D01*
X003524Y000945D01*
X003462Y001007D01*
X003462Y001130D01*
X003524Y001192D01*
X003647Y001192D01*
X003709Y001130D01*
X003340Y001130D02*
X003340Y000945D01*
X003217Y000945D02*
X003217Y001130D01*
X003279Y001192D01*
X003340Y001130D01*
X003217Y001130D02*
X003155Y001192D01*
X003094Y001192D01*
X003094Y000945D01*
X002725Y000945D02*
X002972Y001315D01*
X002604Y001315D02*
X002357Y000945D01*
X002234Y000945D02*
X002173Y000945D01*
X002173Y001007D01*
X002234Y001007D01*
X002234Y000945D01*
X002234Y001130D02*
X002173Y001130D01*
X002173Y001192D01*
X002234Y001192D01*
X002234Y001130D01*
X002051Y001130D02*
X002051Y001007D01*
X001990Y000945D01*
X001804Y000945D01*
X001682Y000945D02*
X001621Y001007D01*
X001621Y001254D01*
X001682Y001192D02*
X001559Y001192D01*
X001437Y001192D02*
X001313Y001192D01*
X001375Y001254D02*
X001375Y001007D01*
X001437Y000945D01*
X001192Y000945D02*
X001192Y001130D01*
X001130Y001192D01*
X001007Y001192D01*
X000945Y001130D01*
X000945Y001315D02*
X000945Y000945D01*
X001804Y000822D02*
X001804Y001192D01*
X001990Y001192D01*
X002051Y001130D01*
X002113Y002145D02*
X001866Y002145D01*
X001743Y002145D02*
X001743Y002207D01*
X001682Y002207D01*
X001682Y002145D01*
X001743Y002145D01*
X001560Y002207D02*
X001498Y002145D01*
X001375Y002145D01*
X001313Y002207D01*
X001560Y002454D01*
X001560Y002207D01*
X001560Y002454D02*
X001498Y002515D01*
X001375Y002515D01*
X001313Y002454D01*
X001313Y002207D01*
X001192Y002392D02*
X001068Y002145D01*
X000945Y002392D01*
X000945Y002745D02*
X001130Y002745D01*
X001192Y002807D01*
X001192Y003054D01*
X001130Y003115D01*
X000945Y003115D01*
X000945Y002745D01*
X001313Y002745D02*
X001313Y003115D01*
X001560Y003115D01*
X001682Y003115D02*
X001682Y002868D01*
X001805Y002745D01*
X001929Y002868D01*
X001929Y003115D01*
X002051Y003345D02*
X002051Y003530D01*
X002174Y003654D01*
X002174Y003715D01*
X002295Y003654D02*
X002295Y003592D01*
X002357Y003530D01*
X002481Y003530D01*
X002542Y003468D01*
X002542Y003407D01*
X002481Y003345D01*
X002357Y003345D01*
X002295Y003407D01*
X002295Y003468D01*
X002357Y003530D01*
X002481Y003530D02*
X002542Y003592D01*
X002542Y003654D01*
X002481Y003715D01*
X002357Y003715D01*
X002295Y003654D01*
X002051Y003530D02*
X001927Y003654D01*
X001927Y003715D01*
X001806Y003715D02*
X001806Y003345D01*
X001559Y003715D01*
X001559Y003345D01*
X001437Y003345D02*
X001313Y003345D01*
X001375Y003345D02*
X001375Y003715D01*
X001313Y003715D02*
X001437Y003715D01*
X001192Y003715D02*
X000945Y003715D01*
X001068Y003715D02*
X001068Y003345D01*
X001313Y002930D02*
X001437Y002930D01*
X001313Y002745D02*
X001560Y002745D01*
X001866Y002392D02*
X001989Y002515D01*
X001989Y002145D01*
X002602Y002145D02*
X002849Y002145D01*
X002971Y002145D02*
X003218Y002392D01*
X003218Y002454D01*
X003156Y002515D01*
X003032Y002515D01*
X002971Y002454D01*
X002726Y002515D02*
X002726Y002145D01*
X002971Y002145D02*
X003218Y002145D01*
X003339Y002145D02*
X003586Y002515D01*
X003402Y002745D02*
X003402Y002992D01*
X003278Y003115D01*
X003155Y002992D01*
X003155Y002745D01*
X003033Y002807D02*
X003033Y003054D01*
X002972Y003115D01*
X002848Y003115D01*
X002787Y003054D01*
X002787Y002807D01*
X002848Y002745D01*
X002972Y002745D01*
X003033Y002807D01*
X003155Y002930D02*
X003402Y002930D01*
X003279Y003530D02*
X003032Y003530D01*
X002911Y003530D02*
X002911Y003407D01*
X002849Y003345D01*
X002726Y003345D01*
X002664Y003407D01*
X002664Y003530D02*
X002787Y003592D01*
X002849Y003592D01*
X002911Y003530D01*
X002911Y003715D02*
X002664Y003715D01*
X002664Y003530D01*
X002603Y003115D02*
X002418Y003115D01*
X002418Y002745D01*
X002603Y002745D01*
X002665Y002807D01*
X002665Y002868D01*
X002603Y002930D01*
X002418Y002930D01*
X002603Y002930D02*
X002665Y002992D01*
X002665Y003054D01*
X002603Y003115D01*
X002726Y002515D02*
X002602Y002392D01*
D12*
X001780Y004430D02*
X004080Y004430D01*
X004080Y008430D01*
X003330Y008430D01*
X003328Y008391D01*
X003322Y008352D01*
X003313Y008314D01*
X003300Y008277D01*
X003283Y008241D01*
X003263Y008208D01*
X003239Y008176D01*
X003213Y008147D01*
X003184Y008121D01*
X003152Y008097D01*
X003119Y008077D01*
X003083Y008060D01*
X003046Y008047D01*
X003008Y008038D01*
X002969Y008032D01*
X002930Y008030D01*
X002891Y008032D01*
X002852Y008038D01*
X002814Y008047D01*
X002777Y008060D01*
X002741Y008077D01*
X002708Y008097D01*
X002676Y008121D01*
X002647Y008147D01*
X002621Y008176D01*
X002597Y008208D01*
X002577Y008241D01*
X002560Y008277D01*
X002547Y008314D01*
X002538Y008352D01*
X002532Y008391D01*
X002530Y008430D01*
X001780Y008430D01*
X001780Y004430D01*
X006630Y004580D02*
X006630Y003880D01*
X006632Y003863D01*
X006636Y003846D01*
X006643Y003830D01*
X006653Y003816D01*
X006666Y003803D01*
X006680Y003793D01*
X006696Y003786D01*
X006713Y003782D01*
X006730Y003780D01*
X006880Y003780D01*
X006930Y003830D01*
X008830Y003830D01*
X008880Y003780D01*
X009030Y003780D01*
X009047Y003782D01*
X009064Y003786D01*
X009080Y003793D01*
X009094Y003803D01*
X009107Y003816D01*
X009117Y003830D01*
X009124Y003846D01*
X009128Y003863D01*
X009130Y003880D01*
X009130Y004580D01*
X009128Y004597D01*
X009124Y004614D01*
X009117Y004630D01*
X009107Y004644D01*
X009094Y004657D01*
X009080Y004667D01*
X009064Y004674D01*
X009047Y004678D01*
X009030Y004680D01*
X008880Y004680D01*
X008830Y004630D01*
X006930Y004630D01*
X006880Y004680D01*
X006730Y004680D01*
X006713Y004678D01*
X006696Y004674D01*
X006680Y004667D01*
X006666Y004657D01*
X006653Y004644D01*
X006643Y004630D01*
X006636Y004614D01*
X006632Y004597D01*
X006630Y004580D01*
X006730Y005780D02*
X006880Y005780D01*
X006930Y005830D01*
X008830Y005830D01*
X008880Y005780D01*
X009030Y005780D01*
X009047Y005782D01*
X009064Y005786D01*
X009080Y005793D01*
X009094Y005803D01*
X009107Y005816D01*
X009117Y005830D01*
X009124Y005846D01*
X009128Y005863D01*
X009130Y005880D01*
X009130Y006580D01*
X009128Y006597D01*
X009124Y006614D01*
X009117Y006630D01*
X009107Y006644D01*
X009094Y006657D01*
X009080Y006667D01*
X009064Y006674D01*
X009047Y006678D01*
X009030Y006680D01*
X008880Y006680D01*
X008830Y006630D01*
X006930Y006630D01*
X006880Y006680D01*
X006730Y006680D01*
X006713Y006678D01*
X006696Y006674D01*
X006680Y006667D01*
X006666Y006657D01*
X006653Y006644D01*
X006643Y006630D01*
X006636Y006614D01*
X006632Y006597D01*
X006630Y006580D01*
X006630Y005880D01*
X006632Y005863D01*
X006636Y005846D01*
X006643Y005830D01*
X006653Y005816D01*
X006666Y005803D01*
X006680Y005793D01*
X006696Y005786D01*
X006713Y005782D01*
X006730Y005780D01*
X006730Y007780D02*
X006880Y007780D01*
X006930Y007830D01*
X008830Y007830D01*
X008880Y007780D01*
X009030Y007780D01*
X009047Y007782D01*
X009064Y007786D01*
X009080Y007793D01*
X009094Y007803D01*
X009107Y007816D01*
X009117Y007830D01*
X009124Y007846D01*
X009128Y007863D01*
X009130Y007880D01*
X009130Y008580D01*
X009128Y008597D01*
X009124Y008614D01*
X009117Y008630D01*
X009107Y008644D01*
X009094Y008657D01*
X009080Y008667D01*
X009064Y008674D01*
X009047Y008678D01*
X009030Y008680D01*
X008880Y008680D01*
X008830Y008630D01*
X006930Y008630D01*
X006880Y008680D01*
X006730Y008680D01*
X006713Y008678D01*
X006696Y008674D01*
X006680Y008667D01*
X006666Y008657D01*
X006653Y008644D01*
X006643Y008630D01*
X006636Y008614D01*
X006632Y008597D01*
X006630Y008580D01*
X006630Y007880D01*
X006632Y007863D01*
X006636Y007846D01*
X006643Y007830D01*
X006653Y007816D01*
X006666Y007803D01*
X006680Y007793D01*
X006696Y007786D01*
X006713Y007782D01*
X006730Y007780D01*
X008630Y009880D02*
X009130Y009880D01*
X009156Y009882D01*
X009182Y009887D01*
X009207Y009895D01*
X009230Y009907D01*
X009252Y009921D01*
X009271Y009939D01*
X009289Y009958D01*
X009303Y009980D01*
X009315Y010003D01*
X009323Y010028D01*
X009328Y010054D01*
X009330Y010080D01*
X009330Y011380D01*
X009328Y011406D01*
X009323Y011432D01*
X009315Y011457D01*
X009303Y011480D01*
X009289Y011502D01*
X009271Y011521D01*
X009252Y011539D01*
X009230Y011553D01*
X009207Y011565D01*
X009182Y011573D01*
X009156Y011578D01*
X009130Y011580D01*
X008630Y011580D01*
X008604Y011578D01*
X008578Y011573D01*
X008553Y011565D01*
X008530Y011553D01*
X008508Y011539D01*
X008489Y011521D01*
X008471Y011502D01*
X008457Y011480D01*
X008445Y011457D01*
X008437Y011432D01*
X008432Y011406D01*
X008430Y011380D01*
X008430Y010080D01*
X008432Y010054D01*
X008437Y010028D01*
X008445Y010003D01*
X008457Y009980D01*
X008471Y009958D01*
X008489Y009939D01*
X008508Y009921D01*
X008530Y009907D01*
X008553Y009895D01*
X008578Y009887D01*
X008604Y009882D01*
X008630Y009880D01*
X006480Y010480D02*
X006480Y010980D01*
X006478Y011006D01*
X006473Y011032D01*
X006465Y011057D01*
X006453Y011080D01*
X006439Y011102D01*
X006421Y011121D01*
X006402Y011139D01*
X006380Y011153D01*
X006357Y011165D01*
X006332Y011173D01*
X006306Y011178D01*
X006280Y011180D01*
X004980Y011180D01*
X004954Y011178D01*
X004928Y011173D01*
X004903Y011165D01*
X004880Y011153D01*
X004858Y011139D01*
X004839Y011121D01*
X004821Y011102D01*
X004807Y011080D01*
X004795Y011057D01*
X004787Y011032D01*
X004782Y011006D01*
X004780Y010980D01*
X004780Y010480D01*
X004782Y010454D01*
X004787Y010428D01*
X004795Y010403D01*
X004807Y010380D01*
X004821Y010358D01*
X004839Y010339D01*
X004858Y010321D01*
X004880Y010307D01*
X004903Y010295D01*
X004928Y010287D01*
X004954Y010282D01*
X004980Y010280D01*
X006280Y010280D01*
X006306Y010282D01*
X006332Y010287D01*
X006357Y010295D01*
X006380Y010307D01*
X006402Y010321D01*
X006421Y010339D01*
X006439Y010358D01*
X006453Y010380D01*
X006465Y010403D01*
X006473Y010428D01*
X006478Y010454D01*
X006480Y010480D01*
X006280Y012280D02*
X004980Y012280D01*
X004954Y012282D01*
X004928Y012287D01*
X004903Y012295D01*
X004880Y012307D01*
X004858Y012321D01*
X004839Y012339D01*
X004821Y012358D01*
X004807Y012380D01*
X004795Y012403D01*
X004787Y012428D01*
X004782Y012454D01*
X004780Y012480D01*
X004780Y012980D01*
X004782Y013006D01*
X004787Y013032D01*
X004795Y013057D01*
X004807Y013080D01*
X004821Y013102D01*
X004839Y013121D01*
X004858Y013139D01*
X004880Y013153D01*
X004903Y013165D01*
X004928Y013173D01*
X004954Y013178D01*
X004980Y013180D01*
X006280Y013180D01*
X006306Y013178D01*
X006332Y013173D01*
X006357Y013165D01*
X006380Y013153D01*
X006402Y013139D01*
X006421Y013121D01*
X006439Y013102D01*
X006453Y013080D01*
X006465Y013057D01*
X006473Y013032D01*
X006478Y013006D01*
X006480Y012980D01*
X006480Y012480D01*
X006478Y012454D01*
X006473Y012428D01*
X006465Y012403D01*
X006453Y012380D01*
X006439Y012358D01*
X006421Y012339D01*
X006402Y012321D01*
X006380Y012307D01*
X006357Y012295D01*
X006332Y012287D01*
X006306Y012282D01*
X006280Y012280D01*
X008180Y013030D02*
X008380Y013030D01*
X008280Y012930D02*
X008280Y013130D01*
X008280Y013380D02*
X008280Y013580D01*
X008030Y013230D02*
X008032Y013288D01*
X008038Y013346D01*
X008048Y013403D01*
X008062Y013459D01*
X008079Y013515D01*
X008100Y013569D01*
X008125Y013621D01*
X008154Y013672D01*
X008186Y013720D01*
X008221Y013766D01*
X008259Y013810D01*
X008300Y013851D01*
X008344Y013889D01*
X008390Y013924D01*
X008438Y013956D01*
X008489Y013985D01*
X008541Y014010D01*
X008595Y014031D01*
X008651Y014048D01*
X008707Y014062D01*
X008764Y014072D01*
X008822Y014078D01*
X008880Y014080D01*
X008938Y014078D01*
X008996Y014072D01*
X009053Y014062D01*
X009109Y014048D01*
X009165Y014031D01*
X009219Y014010D01*
X009271Y013985D01*
X009322Y013956D01*
X009370Y013924D01*
X009416Y013889D01*
X009460Y013851D01*
X009501Y013810D01*
X009539Y013766D01*
X009574Y013720D01*
X009606Y013672D01*
X009635Y013621D01*
X009660Y013569D01*
X009681Y013515D01*
X009698Y013459D01*
X009712Y013403D01*
X009722Y013346D01*
X009728Y013288D01*
X009730Y013230D01*
X009728Y013172D01*
X009722Y013114D01*
X009712Y013057D01*
X009698Y013001D01*
X009681Y012945D01*
X009660Y012891D01*
X009635Y012839D01*
X009606Y012788D01*
X009574Y012740D01*
X009539Y012694D01*
X009501Y012650D01*
X009460Y012609D01*
X009416Y012571D01*
X009370Y012536D01*
X009322Y012504D01*
X009271Y012475D01*
X009219Y012450D01*
X009165Y012429D01*
X009109Y012412D01*
X009053Y012398D01*
X008996Y012388D01*
X008938Y012382D01*
X008880Y012380D01*
X008822Y012382D01*
X008764Y012388D01*
X008707Y012398D01*
X008651Y012412D01*
X008595Y012429D01*
X008541Y012450D01*
X008489Y012475D01*
X008438Y012504D01*
X008390Y012536D01*
X008344Y012571D01*
X008300Y012609D01*
X008259Y012650D01*
X008221Y012694D01*
X008186Y012740D01*
X008154Y012788D01*
X008125Y012839D01*
X008100Y012891D01*
X008079Y012945D01*
X008062Y013001D01*
X008048Y013057D01*
X008038Y013114D01*
X008032Y013172D01*
X008030Y013230D01*
X011380Y013380D02*
X011380Y012880D01*
X011630Y012630D01*
X013130Y012630D01*
X013380Y012880D01*
X013380Y013380D01*
X013130Y013630D01*
X011630Y013630D01*
X011380Y013380D01*
X011630Y012630D02*
X011380Y012380D01*
X011380Y011880D01*
X011630Y011630D01*
X013130Y011630D01*
X013380Y011880D01*
X013380Y012380D01*
X013130Y012630D01*
X013130Y011630D02*
X013380Y011380D01*
X013380Y010880D01*
X013130Y010630D01*
X011630Y010630D01*
X011380Y010880D01*
X011380Y011380D01*
X011630Y011630D01*
X012280Y004580D02*
X012280Y003880D01*
X013480Y003880D01*
X013480Y004580D01*
X012280Y004580D01*
X012680Y004230D02*
X012830Y004230D01*
X012830Y004430D01*
X012930Y004430D01*
X012830Y004230D02*
X012830Y004030D01*
X012830Y004230D02*
X013230Y004430D01*
X013230Y004030D01*
X012830Y004230D01*
X013380Y004230D01*
X013480Y002580D02*
X012280Y002580D01*
X012280Y001880D01*
X013480Y001880D01*
X013480Y002580D01*
X013230Y002430D02*
X012830Y002230D01*
X012830Y002430D01*
X012930Y002430D01*
X012830Y002230D02*
X012830Y002030D01*
X012830Y002230D02*
X012680Y002230D01*
X012830Y002230D02*
X013380Y002230D01*
X013230Y002030D02*
X012830Y002230D01*
X013230Y002430D02*
X013230Y002030D01*
X009130Y001880D02*
X009130Y002580D01*
X009128Y002597D01*
X009124Y002614D01*
X009117Y002630D01*
X009107Y002644D01*
X009094Y002657D01*
X009080Y002667D01*
X009064Y002674D01*
X009047Y002678D01*
X009030Y002680D01*
X008880Y002680D01*
X008830Y002630D01*
X006930Y002630D01*
X006880Y002680D01*
X006730Y002680D01*
X006713Y002678D01*
X006696Y002674D01*
X006680Y002667D01*
X006666Y002657D01*
X006653Y002644D01*
X006643Y002630D01*
X006636Y002614D01*
X006632Y002597D01*
X006630Y002580D01*
X006630Y001880D01*
X006632Y001863D01*
X006636Y001846D01*
X006643Y001830D01*
X006653Y001816D01*
X006666Y001803D01*
X006680Y001793D01*
X006696Y001786D01*
X006713Y001782D01*
X006730Y001780D01*
X006880Y001780D01*
X006930Y001830D01*
X008830Y001830D01*
X008880Y001780D01*
X009030Y001780D01*
X009047Y001782D01*
X009064Y001786D01*
X009080Y001793D01*
X009094Y001803D01*
X009107Y001816D01*
X009117Y001830D01*
X009124Y001846D01*
X009128Y001863D01*
X009130Y001880D01*
X003780Y010380D02*
X003780Y013080D01*
X003778Y013139D01*
X003772Y013197D01*
X003763Y013256D01*
X003749Y013313D01*
X003732Y013369D01*
X003711Y013424D01*
X003687Y013478D01*
X003659Y013530D01*
X003628Y013580D01*
X003594Y013628D01*
X003557Y013673D01*
X003516Y013716D01*
X003473Y013757D01*
X003428Y013794D01*
X003380Y013828D01*
X003330Y013859D01*
X003278Y013887D01*
X003224Y013911D01*
X003169Y013932D01*
X003113Y013949D01*
X003056Y013963D01*
X002997Y013972D01*
X002939Y013978D01*
X002880Y013980D01*
X002821Y013978D01*
X002763Y013972D01*
X002704Y013963D01*
X002647Y013949D01*
X002591Y013932D01*
X002536Y013911D01*
X002482Y013887D01*
X002430Y013859D01*
X002380Y013828D01*
X002332Y013794D01*
X002287Y013757D01*
X002244Y013716D01*
X002203Y013673D01*
X002166Y013628D01*
X002132Y013580D01*
X002101Y013530D01*
X002073Y013478D01*
X002049Y013424D01*
X002028Y013369D01*
X002011Y013313D01*
X001997Y013256D01*
X001988Y013197D01*
X001982Y013139D01*
X001980Y013080D01*
X001980Y010380D01*
X001982Y010321D01*
X001988Y010263D01*
X001997Y010204D01*
X002011Y010147D01*
X002028Y010091D01*
X002049Y010036D01*
X002073Y009982D01*
X002101Y009930D01*
X002132Y009880D01*
X002166Y009832D01*
X002203Y009787D01*
X002244Y009744D01*
X002287Y009703D01*
X002332Y009666D01*
X002380Y009632D01*
X002430Y009601D01*
X002482Y009573D01*
X002536Y009549D01*
X002591Y009528D01*
X002647Y009511D01*
X002704Y009497D01*
X002763Y009488D01*
X002821Y009482D01*
X002880Y009480D01*
X002939Y009482D01*
X002997Y009488D01*
X003056Y009497D01*
X003113Y009511D01*
X003169Y009528D01*
X003224Y009549D01*
X003278Y009573D01*
X003330Y009601D01*
X003380Y009632D01*
X003428Y009666D01*
X003473Y009703D01*
X003516Y009744D01*
X003557Y009787D01*
X003594Y009832D01*
X003628Y009880D01*
X003659Y009930D01*
X003687Y009982D01*
X003711Y010036D01*
X003732Y010091D01*
X003749Y010147D01*
X003763Y010204D01*
X003772Y010263D01*
X003778Y010321D01*
X003780Y010380D01*
D13*
X003855Y009716D02*
X004305Y009716D01*
X004305Y009866D02*
X004305Y009565D01*
X004305Y009405D02*
X004155Y009255D01*
X004305Y009180D02*
X004230Y009105D01*
X003930Y009105D01*
X003855Y009180D01*
X003855Y009330D01*
X003930Y009405D01*
X004230Y009405D01*
X004305Y009330D01*
X004305Y009180D01*
X004005Y009565D02*
X003855Y009716D01*
X003322Y009105D02*
X003322Y008655D01*
X003172Y008655D02*
X003473Y008655D01*
X003172Y008955D02*
X003322Y009105D01*
X003012Y009030D02*
X002937Y009105D01*
X002787Y009105D01*
X002712Y009030D01*
X002712Y008730D01*
X002787Y008655D01*
X002937Y008655D01*
X003012Y008730D01*
X002555Y008655D02*
X002405Y008655D01*
X002480Y008655D02*
X002480Y009105D01*
X002405Y009105D02*
X002555Y009105D01*
X002705Y007495D02*
X002705Y007195D01*
X002930Y007195D01*
X002855Y007345D01*
X002855Y007420D01*
X002930Y007495D01*
X003080Y007495D01*
X003155Y007420D01*
X003155Y007270D01*
X003080Y007195D01*
X003080Y007034D02*
X003005Y007034D01*
X002930Y006959D01*
X002930Y006809D01*
X002855Y006734D01*
X002780Y006734D01*
X002705Y006809D01*
X002705Y006959D01*
X002780Y007034D01*
X002855Y007034D01*
X002930Y006959D01*
X002930Y006809D02*
X003005Y006734D01*
X003080Y006734D01*
X003155Y006809D01*
X003155Y006959D01*
X003080Y007034D01*
X002780Y006574D02*
X002705Y006574D01*
X002780Y006574D02*
X002930Y006424D01*
X003155Y006424D01*
X002930Y006424D02*
X002780Y006274D01*
X002705Y006274D01*
X002705Y006114D02*
X003155Y006114D01*
X002705Y005813D01*
X003155Y005813D01*
X003155Y005657D02*
X003155Y005506D01*
X003155Y005582D02*
X002705Y005582D01*
X002705Y005657D02*
X002705Y005506D01*
X002705Y005346D02*
X002705Y005046D01*
X002705Y005196D02*
X003155Y005196D01*
X007505Y005305D02*
X007505Y004855D01*
X007505Y005005D02*
X007730Y005005D01*
X007805Y005080D01*
X007805Y005230D01*
X007730Y005305D01*
X007505Y005305D01*
X007655Y005005D02*
X007805Y004855D01*
X007965Y004855D02*
X008266Y005155D01*
X008266Y005230D01*
X008191Y005305D01*
X008040Y005305D01*
X007965Y005230D01*
X007965Y004855D02*
X008266Y004855D01*
X008216Y003305D02*
X008216Y002855D01*
X008366Y002855D02*
X008065Y002855D01*
X007905Y002855D02*
X007755Y003005D01*
X007830Y003005D02*
X007905Y003080D01*
X007905Y003230D01*
X007830Y003305D01*
X007605Y003305D01*
X007605Y002855D01*
X007605Y003005D02*
X007830Y003005D01*
X008065Y003155D02*
X008216Y003305D01*
X008191Y006855D02*
X008040Y006855D01*
X007965Y006930D01*
X007805Y006855D02*
X007655Y007005D01*
X007730Y007005D02*
X007505Y007005D01*
X007505Y006855D02*
X007505Y007305D01*
X007730Y007305D01*
X007805Y007230D01*
X007805Y007080D01*
X007730Y007005D01*
X007965Y007230D02*
X008040Y007305D01*
X008191Y007305D01*
X008266Y007230D01*
X008266Y007155D01*
X008191Y007080D01*
X008266Y007005D01*
X008266Y006930D01*
X008191Y006855D01*
X008191Y007080D02*
X008116Y007080D01*
X008170Y008855D02*
X008170Y009305D01*
X007945Y009080D01*
X008245Y009080D01*
X007784Y009080D02*
X007709Y009005D01*
X007484Y009005D01*
X007484Y008855D02*
X007484Y009305D01*
X007709Y009305D01*
X007784Y009230D01*
X007784Y009080D01*
X007634Y009005D02*
X007784Y008855D01*
X007830Y010284D02*
X008130Y010284D01*
X008205Y010359D01*
X008205Y010509D01*
X008130Y010584D01*
X008205Y010745D02*
X007905Y011045D01*
X007830Y011045D01*
X007755Y010970D01*
X007755Y010820D01*
X007830Y010745D01*
X007830Y010584D02*
X007755Y010509D01*
X007755Y010359D01*
X007830Y010284D01*
X008205Y010745D02*
X008205Y011045D01*
X007980Y011934D02*
X007680Y011934D01*
X007605Y012009D01*
X007605Y012159D01*
X007680Y012234D01*
X007755Y012395D02*
X007605Y012545D01*
X008055Y012545D01*
X008055Y012395D02*
X008055Y012695D01*
X007980Y012234D02*
X008055Y012159D01*
X008055Y012009D01*
X007980Y011934D01*
X007155Y012380D02*
X007155Y012530D01*
X007080Y012605D01*
X006930Y012765D02*
X006930Y013066D01*
X007155Y012991D02*
X006705Y012991D01*
X006930Y012765D01*
X006780Y012605D02*
X006705Y012530D01*
X006705Y012380D01*
X006780Y012305D01*
X007080Y012305D01*
X007155Y012380D01*
X007080Y011066D02*
X007155Y010991D01*
X007155Y010840D01*
X007080Y010765D01*
X007080Y010605D02*
X007155Y010530D01*
X007155Y010380D01*
X007080Y010305D01*
X006780Y010305D01*
X006705Y010380D01*
X006705Y010530D01*
X006780Y010605D01*
X006780Y010765D02*
X006705Y010840D01*
X006705Y010991D01*
X006780Y011066D01*
X006855Y011066D01*
X006930Y010991D01*
X007005Y011066D01*
X007080Y011066D01*
X006930Y010991D02*
X006930Y010916D01*
X011781Y008720D02*
X011781Y008326D01*
X012706Y008996D02*
X013651Y008996D01*
X014014Y008151D02*
X014089Y008151D01*
X014164Y008076D01*
X014164Y007851D01*
X014240Y007691D02*
X014315Y007691D01*
X014390Y007616D01*
X014390Y007466D01*
X014315Y007391D01*
X014315Y007230D02*
X013939Y007230D01*
X014014Y007391D02*
X013939Y007466D01*
X013939Y007616D01*
X014014Y007691D01*
X014164Y007616D02*
X014240Y007691D01*
X014164Y007616D02*
X014164Y007466D01*
X014089Y007391D01*
X014014Y007391D01*
X014315Y007230D02*
X014390Y007155D01*
X014390Y007005D01*
X014315Y006930D01*
X013939Y006930D01*
X013939Y007851D02*
X013939Y008076D01*
X014014Y008151D01*
X014164Y008076D02*
X014240Y008151D01*
X014315Y008151D01*
X014390Y008076D01*
X014390Y007851D01*
X013939Y007851D01*
X014871Y008996D02*
X015147Y008996D01*
X012973Y010130D02*
X012898Y010055D01*
X012672Y010055D01*
X012672Y009905D02*
X012672Y010355D01*
X012898Y010355D01*
X012973Y010280D01*
X012973Y010130D01*
X012512Y010055D02*
X012512Y009980D01*
X012437Y009905D01*
X012287Y009905D01*
X012212Y009980D01*
X012287Y010130D02*
X012437Y010130D01*
X012512Y010055D01*
X012512Y010280D02*
X012437Y010355D01*
X012287Y010355D01*
X012212Y010280D01*
X012212Y010205D01*
X012287Y010130D01*
X012055Y009905D02*
X011905Y009905D01*
X011980Y009905D02*
X011980Y010355D01*
X011905Y010355D02*
X012055Y010355D01*
X011781Y006634D02*
X011781Y006240D01*
X012706Y005964D02*
X013651Y005964D01*
X013166Y005205D02*
X013166Y004755D01*
X013316Y004755D02*
X013015Y004755D01*
X012855Y004830D02*
X012855Y005130D01*
X012780Y005205D01*
X012555Y005205D01*
X012555Y004755D01*
X012780Y004755D01*
X012855Y004830D01*
X013015Y005055D02*
X013166Y005205D01*
X014871Y005964D02*
X015147Y005964D01*
X013241Y003205D02*
X013090Y003205D01*
X013015Y003130D01*
X012855Y003130D02*
X012780Y003205D01*
X012555Y003205D01*
X012555Y002755D01*
X012780Y002755D01*
X012855Y002830D01*
X012855Y003130D01*
X013241Y003205D02*
X013316Y003130D01*
X013316Y003055D01*
X013015Y002755D01*
X013316Y002755D01*
X001705Y010755D02*
X001705Y011055D01*
X001705Y010905D02*
X001255Y010905D01*
X001405Y010755D01*
X001330Y011215D02*
X001255Y011290D01*
X001255Y011441D01*
X001330Y011516D01*
X001405Y011516D01*
X001705Y011215D01*
X001705Y011516D01*
X001705Y011676D02*
X001255Y011676D01*
X001405Y011826D01*
X001255Y011976D01*
X001705Y011976D01*
X001705Y012136D02*
X001255Y012136D01*
X001255Y012436D02*
X001705Y012436D01*
X001480Y012436D02*
X001480Y012136D01*
X001405Y012597D02*
X001405Y012897D01*
X001705Y012597D01*
X001705Y012897D01*
D14*
X005510Y013030D02*
X005510Y012430D01*
X005760Y012430D02*
X005760Y013030D01*
X005760Y011030D02*
X005760Y010430D01*
X005510Y010430D02*
X005510Y011030D01*
X008580Y010860D02*
X009180Y010860D01*
X009180Y010610D02*
X008580Y010610D01*
D15*
X012505Y004230D03*
X012505Y002230D03*
D16*
X012005Y002230D03*
X013755Y002230D03*
X013755Y004230D03*
X012005Y004230D03*
D17*
X003580Y010380D02*
X003580Y013080D01*
X003578Y013131D01*
X003573Y013182D01*
X003563Y013232D01*
X003550Y013282D01*
X003534Y013330D01*
X003514Y013377D01*
X003490Y013423D01*
X003464Y013466D01*
X003434Y013508D01*
X003401Y013547D01*
X003366Y013584D01*
X003328Y013618D01*
X003287Y013649D01*
X003245Y013678D01*
X003200Y013703D01*
X003154Y013724D01*
X003106Y013743D01*
X003057Y013757D01*
X003007Y013768D01*
X002957Y013776D01*
X002906Y013780D01*
X002854Y013780D01*
X002803Y013776D01*
X002753Y013768D01*
X002703Y013757D01*
X002654Y013743D01*
X002606Y013724D01*
X002560Y013703D01*
X002515Y013678D01*
X002473Y013649D01*
X002432Y013618D01*
X002394Y013584D01*
X002359Y013547D01*
X002326Y013508D01*
X002296Y013466D01*
X002270Y013423D01*
X002246Y013377D01*
X002226Y013330D01*
X002210Y013282D01*
X002197Y013232D01*
X002187Y013182D01*
X002182Y013131D01*
X002180Y013080D01*
X002180Y010380D01*
X002182Y010329D01*
X002187Y010278D01*
X002197Y010228D01*
X002210Y010178D01*
X002226Y010130D01*
X002246Y010083D01*
X002270Y010037D01*
X002296Y009994D01*
X002326Y009952D01*
X002359Y009913D01*
X002394Y009876D01*
X002432Y009842D01*
X002473Y009811D01*
X002515Y009782D01*
X002560Y009757D01*
X002606Y009736D01*
X002654Y009717D01*
X002703Y009703D01*
X002753Y009692D01*
X002803Y009684D01*
X002854Y009680D01*
X002906Y009680D01*
X002957Y009684D01*
X003007Y009692D01*
X003057Y009703D01*
X003106Y009717D01*
X003154Y009736D01*
X003200Y009757D01*
X003245Y009782D01*
X003287Y009811D01*
X003328Y009842D01*
X003366Y009876D01*
X003401Y009913D01*
X003434Y009952D01*
X003464Y009994D01*
X003490Y010037D01*
X003514Y010083D01*
X003534Y010130D01*
X003550Y010178D01*
X003563Y010228D01*
X003573Y010278D01*
X003578Y010329D01*
X003580Y010380D01*
D18*
X006460Y008230D03*
X006460Y006230D03*
X006460Y004230D03*
X006460Y002230D03*
X009300Y002230D03*
X009300Y004230D03*
X009300Y006230D03*
X009300Y008230D03*
D19*
X011025Y006472D02*
X011485Y006472D01*
X011485Y006319D02*
X011485Y006626D01*
X011178Y006319D02*
X011025Y006472D01*
M02*
