G75*
%MOIN*%
%OFA0B0*%
%FSLAX24Y24*%
%IPPOS*%
%LPD*%
%AMOC8*
5,1,8,0,0,1.08239X$1,22.5*
%
%ADD10OC8,0.0560*%
%ADD11C,0.0560*%
%ADD12C,0.0480*%
%ADD13C,0.0380*%
%ADD14OC8,0.0660*%
%ADD15OC8,0.0600*%
%ADD16C,0.0100*%
%ADD17C,0.0160*%
D10*
X008880Y010230D03*
X008880Y011230D03*
X008880Y013630D03*
X006130Y012730D03*
X005130Y012730D03*
X005130Y010730D03*
X006130Y010730D03*
D11*
X008880Y012830D03*
D12*
X004670Y007930D02*
X004190Y007930D01*
X004190Y006930D02*
X004670Y006930D01*
X004670Y005930D02*
X004190Y005930D01*
X004190Y004930D02*
X004670Y004930D01*
X001670Y004930D02*
X001190Y004930D01*
X001190Y005930D02*
X001670Y005930D01*
X001670Y006930D02*
X001190Y006930D01*
X001190Y007930D02*
X001670Y007930D01*
X011140Y004230D02*
X011620Y004230D01*
X011620Y002230D02*
X011140Y002230D01*
X014140Y002230D02*
X014620Y002230D01*
X014620Y004230D02*
X014140Y004230D01*
D13*
X003070Y010730D02*
X002690Y010730D01*
X002690Y012730D02*
X003070Y012730D01*
D14*
X006080Y008230D03*
X006080Y006230D03*
X006080Y004230D03*
X006080Y002230D03*
X009680Y002230D03*
X009680Y004230D03*
X009680Y006230D03*
X009680Y008230D03*
D15*
X011880Y011130D03*
X011880Y012130D03*
X011880Y013130D03*
X012880Y013130D03*
X012880Y012130D03*
X012880Y011130D03*
D16*
X012805Y011055D01*
X012430Y011055D01*
X009680Y008305D01*
X009680Y008230D01*
X010180Y007055D02*
X008430Y008805D01*
X008430Y011180D01*
X008430Y013180D01*
X008880Y013630D01*
X008880Y012830D02*
X008930Y012805D01*
X009305Y012430D01*
X010555Y013680D01*
X012305Y013680D01*
X012805Y013180D01*
X012880Y013130D01*
X012880Y012130D02*
X012930Y012055D01*
X013430Y011555D01*
X013430Y009680D01*
X011430Y007680D01*
X011430Y004305D01*
X011380Y004230D01*
X010180Y004305D02*
X010180Y007055D01*
X010180Y004305D02*
X012055Y002430D01*
X012205Y002305D01*
X014305Y002305D01*
X014380Y002230D01*
X006080Y002230D02*
X006055Y002305D01*
X005555Y002805D01*
X005555Y004805D01*
X004430Y005930D01*
X004430Y006930D02*
X006055Y005305D01*
X006055Y004305D01*
X006080Y004230D01*
X004430Y007930D02*
X004655Y008180D01*
X006055Y008180D01*
X006080Y008230D01*
X006055Y010555D02*
X006055Y010680D01*
X006130Y010730D01*
X006180Y010805D01*
X006180Y011180D01*
X008430Y011180D01*
X008805Y011180D01*
X008880Y011230D01*
X009305Y010680D02*
X009305Y012430D01*
X009305Y010680D02*
X008930Y010305D01*
X008880Y010230D01*
X006055Y010555D02*
X001430Y005930D01*
X001430Y006930D02*
X002805Y008305D01*
X002805Y010680D01*
X002880Y010730D01*
D17*
X000410Y014946D02*
X000410Y000410D01*
X015170Y000410D01*
X015170Y014946D01*
X000410Y014946D01*
X000410Y014921D02*
X015170Y014921D01*
X015170Y014762D02*
X000410Y014762D01*
X000410Y014604D02*
X015170Y014604D01*
X015170Y014445D02*
X000410Y014445D01*
X000410Y014287D02*
X015170Y014287D01*
X015170Y014128D02*
X000410Y014128D01*
X000410Y013970D02*
X008626Y013970D01*
X008706Y014050D02*
X008460Y013804D01*
X008460Y013479D01*
X008351Y013370D01*
X008240Y013259D01*
X008240Y011370D01*
X006101Y011370D01*
X005990Y011259D01*
X005990Y011150D01*
X005956Y011150D01*
X005710Y010904D01*
X005710Y010556D01*
X005749Y010517D01*
X002025Y006793D01*
X002050Y006854D01*
X002050Y007006D01*
X001992Y007145D01*
X001953Y007184D01*
X002884Y008115D01*
X002995Y008226D01*
X002995Y010400D01*
X003136Y010400D01*
X003257Y010450D01*
X003350Y010543D01*
X003400Y010664D01*
X003400Y010796D01*
X003350Y010917D01*
X003257Y011010D01*
X003136Y011060D01*
X002624Y011060D01*
X002503Y011010D01*
X002410Y010917D01*
X002360Y010796D01*
X002360Y010664D01*
X002410Y010543D01*
X002503Y010450D01*
X002615Y010404D01*
X002615Y008384D01*
X002025Y007793D01*
X002050Y007854D01*
X002050Y008006D01*
X001992Y008145D01*
X001885Y008252D01*
X001746Y008310D01*
X001114Y008310D01*
X000975Y008252D01*
X000868Y008145D01*
X000810Y008006D01*
X000810Y007854D01*
X000868Y007715D01*
X000975Y007608D01*
X001114Y007550D01*
X001746Y007550D01*
X001807Y007575D01*
X001541Y007310D01*
X001114Y007310D01*
X000975Y007252D01*
X000868Y007145D01*
X000810Y007006D01*
X000810Y006854D01*
X000868Y006715D01*
X000975Y006608D01*
X001114Y006550D01*
X001746Y006550D01*
X001807Y006575D01*
X001541Y006310D01*
X001114Y006310D01*
X000975Y006252D01*
X000868Y006145D01*
X000810Y006006D01*
X000810Y005854D01*
X000868Y005715D01*
X000975Y005608D01*
X001114Y005550D01*
X001746Y005550D01*
X001885Y005608D01*
X001992Y005715D01*
X002050Y005854D01*
X002050Y006006D01*
X001992Y006145D01*
X001953Y006184D01*
X003835Y008067D01*
X003810Y008006D01*
X003810Y007854D01*
X003868Y007715D01*
X003975Y007608D01*
X004114Y007550D01*
X004746Y007550D01*
X004885Y007608D01*
X004992Y007715D01*
X005050Y007854D01*
X005050Y007990D01*
X005655Y007990D01*
X005885Y007760D01*
X006275Y007760D01*
X006550Y008035D01*
X006550Y008425D01*
X006275Y008700D01*
X005885Y008700D01*
X005610Y008425D01*
X005610Y008370D01*
X004728Y008370D01*
X004724Y008374D01*
X004650Y008370D01*
X004576Y008370D01*
X004572Y008366D01*
X004566Y008366D01*
X004517Y008311D01*
X004516Y008310D01*
X004114Y008310D01*
X004053Y008285D01*
X006079Y010310D01*
X006304Y010310D01*
X006550Y010556D01*
X006550Y010904D01*
X006464Y010990D01*
X008240Y010990D01*
X008240Y008726D01*
X008351Y008615D01*
X009990Y006976D01*
X009990Y006585D01*
X009875Y006700D01*
X009485Y006700D01*
X009210Y006425D01*
X009210Y006035D01*
X009485Y005760D01*
X009875Y005760D01*
X009990Y005875D01*
X009990Y004585D01*
X009875Y004700D01*
X009485Y004700D01*
X009210Y004425D01*
X009210Y004035D01*
X009485Y003760D01*
X009875Y003760D01*
X010150Y004035D01*
X010150Y004066D01*
X011606Y002610D01*
X011064Y002610D01*
X010925Y002552D01*
X010818Y002445D01*
X010760Y002306D01*
X010760Y002154D01*
X010818Y002015D01*
X010925Y001908D01*
X011064Y001850D01*
X011696Y001850D01*
X011835Y001908D01*
X011942Y002015D01*
X012000Y002154D01*
X012000Y002229D01*
X012077Y002165D01*
X012126Y002115D01*
X012136Y002115D01*
X012144Y002109D01*
X012214Y002115D01*
X013776Y002115D01*
X013818Y002015D01*
X013925Y001908D01*
X014064Y001850D01*
X014696Y001850D01*
X014835Y001908D01*
X014942Y002015D01*
X015000Y002154D01*
X015000Y002306D01*
X014942Y002445D01*
X014835Y002552D01*
X014696Y002610D01*
X014064Y002610D01*
X013925Y002552D01*
X013868Y002495D01*
X012274Y002495D01*
X012183Y002570D01*
X010370Y004384D01*
X010370Y007134D01*
X009744Y007760D01*
X009875Y007760D01*
X010150Y008035D01*
X010150Y008425D01*
X010109Y008465D01*
X012509Y010865D01*
X012523Y010865D01*
X012698Y010690D01*
X013062Y010690D01*
X013240Y010868D01*
X013240Y009759D01*
X011351Y007870D01*
X011240Y007759D01*
X011240Y004610D01*
X011064Y004610D01*
X010925Y004552D01*
X010818Y004445D01*
X010760Y004306D01*
X010760Y004154D01*
X010818Y004015D01*
X010925Y003908D01*
X011064Y003850D01*
X011696Y003850D01*
X011835Y003908D01*
X011942Y004015D01*
X012000Y004154D01*
X012000Y004306D01*
X011942Y004445D01*
X011835Y004552D01*
X011696Y004610D01*
X011620Y004610D01*
X011620Y007601D01*
X013620Y009601D01*
X013620Y011634D01*
X013509Y011745D01*
X013313Y011941D01*
X013320Y011948D01*
X013320Y012312D01*
X013062Y012570D01*
X012698Y012570D01*
X012440Y012312D01*
X012440Y011948D01*
X012698Y011690D01*
X013026Y011690D01*
X013240Y011476D01*
X013240Y011392D01*
X013062Y011570D01*
X012698Y011570D01*
X012440Y011312D01*
X012440Y011245D01*
X012351Y011245D01*
X012320Y011214D01*
X012320Y011312D01*
X012062Y011570D01*
X011698Y011570D01*
X011440Y011312D01*
X011440Y010948D01*
X011698Y010690D01*
X011796Y010690D01*
X009806Y008700D01*
X009485Y008700D01*
X009210Y008425D01*
X009210Y008294D01*
X008620Y008884D01*
X008620Y009896D01*
X008706Y009810D01*
X009054Y009810D01*
X009300Y010056D01*
X009300Y010404D01*
X009299Y010405D01*
X009384Y010490D01*
X009495Y010601D01*
X009495Y012351D01*
X010634Y013490D01*
X011618Y013490D01*
X011440Y013312D01*
X011440Y012948D01*
X011698Y012690D01*
X012062Y012690D01*
X012320Y012948D01*
X012320Y013312D01*
X012142Y013490D01*
X012226Y013490D01*
X012440Y013276D01*
X012440Y012948D01*
X012698Y012690D01*
X013062Y012690D01*
X013320Y012948D01*
X013320Y013312D01*
X013062Y013570D01*
X012698Y013570D01*
X012691Y013563D01*
X012495Y013759D01*
X012384Y013870D01*
X010476Y013870D01*
X009305Y012699D01*
X009287Y012716D01*
X009300Y012746D01*
X009300Y012914D01*
X009236Y013068D01*
X009118Y013186D01*
X009056Y013212D01*
X009300Y013456D01*
X009300Y013804D01*
X009054Y014050D01*
X008706Y014050D01*
X008467Y013811D02*
X000410Y013811D01*
X000410Y013653D02*
X008460Y013653D01*
X008460Y013494D02*
X000410Y013494D01*
X000410Y013336D02*
X008317Y013336D01*
X008240Y013177D02*
X000410Y013177D01*
X000410Y013019D02*
X002524Y013019D01*
X002503Y013010D02*
X002410Y012917D01*
X002360Y012796D01*
X002360Y012664D01*
X002410Y012543D01*
X002503Y012450D01*
X002624Y012400D01*
X003136Y012400D01*
X003257Y012450D01*
X003350Y012543D01*
X003400Y012664D01*
X003400Y012796D01*
X003350Y012917D01*
X003257Y013010D01*
X003136Y013060D01*
X002624Y013060D01*
X002503Y013010D01*
X002387Y012860D02*
X000410Y012860D01*
X000410Y012702D02*
X002360Y012702D01*
X002410Y012543D02*
X000410Y012543D01*
X000410Y012385D02*
X004882Y012385D01*
X004956Y012310D02*
X004710Y012556D01*
X004710Y012904D01*
X004956Y013150D01*
X005304Y013150D01*
X005550Y012904D01*
X005550Y012556D01*
X005304Y012310D01*
X004956Y012310D01*
X004723Y012543D02*
X003350Y012543D01*
X003400Y012702D02*
X004710Y012702D01*
X004710Y012860D02*
X003373Y012860D01*
X003236Y013019D02*
X004825Y013019D01*
X005435Y013019D02*
X005825Y013019D01*
X005710Y012904D02*
X005710Y012556D01*
X005956Y012310D01*
X006304Y012310D01*
X006550Y012556D01*
X006550Y012904D01*
X006304Y013150D01*
X005956Y013150D01*
X005710Y012904D01*
X005710Y012860D02*
X005550Y012860D01*
X005550Y012702D02*
X005710Y012702D01*
X005723Y012543D02*
X005537Y012543D01*
X005378Y012385D02*
X005882Y012385D01*
X006378Y012385D02*
X008240Y012385D01*
X008240Y012543D02*
X006537Y012543D01*
X006550Y012702D02*
X008240Y012702D01*
X008240Y012860D02*
X006550Y012860D01*
X006435Y013019D02*
X008240Y013019D01*
X008620Y012496D02*
X008642Y012474D01*
X008796Y012410D01*
X008964Y012410D01*
X009029Y012437D01*
X009115Y012351D01*
X009115Y011589D01*
X009054Y011650D01*
X008706Y011650D01*
X008620Y011564D01*
X008620Y012496D01*
X008620Y012385D02*
X009082Y012385D01*
X009115Y012226D02*
X008620Y012226D01*
X008620Y012068D02*
X009115Y012068D01*
X009115Y011909D02*
X008620Y011909D01*
X008620Y011751D02*
X009115Y011751D01*
X009112Y011592D02*
X009115Y011592D01*
X009495Y011592D02*
X013124Y011592D01*
X013199Y011434D02*
X013240Y011434D01*
X013620Y011434D02*
X015170Y011434D01*
X015170Y011592D02*
X013620Y011592D01*
X013503Y011751D02*
X015170Y011751D01*
X015170Y011909D02*
X013345Y011909D01*
X013320Y012068D02*
X015170Y012068D01*
X015170Y012226D02*
X013320Y012226D01*
X013248Y012385D02*
X015170Y012385D01*
X015170Y012543D02*
X013089Y012543D01*
X013074Y012702D02*
X015170Y012702D01*
X015170Y012860D02*
X013232Y012860D01*
X013320Y013019D02*
X015170Y013019D01*
X015170Y013177D02*
X013320Y013177D01*
X013297Y013336D02*
X015170Y013336D01*
X015170Y013494D02*
X013138Y013494D01*
X012601Y013653D02*
X015170Y013653D01*
X015170Y013811D02*
X012443Y013811D01*
X012381Y013336D02*
X012297Y013336D01*
X012320Y013177D02*
X012440Y013177D01*
X012440Y013019D02*
X012320Y013019D01*
X012232Y012860D02*
X012528Y012860D01*
X012686Y012702D02*
X012074Y012702D01*
X012062Y012570D02*
X011698Y012570D01*
X011440Y012312D01*
X011440Y011948D01*
X011698Y011690D01*
X012062Y011690D01*
X012320Y011948D01*
X012320Y012312D01*
X012062Y012570D01*
X012089Y012543D02*
X012671Y012543D01*
X012512Y012385D02*
X012248Y012385D01*
X012320Y012226D02*
X012440Y012226D01*
X012440Y012068D02*
X012320Y012068D01*
X012281Y011909D02*
X012479Y011909D01*
X012637Y011751D02*
X012123Y011751D01*
X012199Y011434D02*
X012561Y011434D01*
X012440Y011275D02*
X012320Y011275D01*
X012443Y010800D02*
X012588Y010800D01*
X012285Y010641D02*
X013240Y010641D01*
X013240Y010483D02*
X012126Y010483D01*
X011968Y010324D02*
X013240Y010324D01*
X013240Y010166D02*
X011809Y010166D01*
X011651Y010007D02*
X013240Y010007D01*
X013240Y009849D02*
X011492Y009849D01*
X011334Y009690D02*
X013171Y009690D01*
X013013Y009532D02*
X011175Y009532D01*
X011017Y009373D02*
X012854Y009373D01*
X012696Y009215D02*
X010858Y009215D01*
X010700Y009056D02*
X012537Y009056D01*
X012379Y008898D02*
X010541Y008898D01*
X010383Y008739D02*
X012220Y008739D01*
X012062Y008581D02*
X010224Y008581D01*
X010150Y008422D02*
X011903Y008422D01*
X011745Y008264D02*
X010150Y008264D01*
X010150Y008105D02*
X011586Y008105D01*
X011428Y007947D02*
X010061Y007947D01*
X009903Y007788D02*
X011269Y007788D01*
X011240Y007630D02*
X009874Y007630D01*
X010033Y007471D02*
X011240Y007471D01*
X011240Y007313D02*
X010191Y007313D01*
X010350Y007154D02*
X011240Y007154D01*
X011240Y006996D02*
X010370Y006996D01*
X010370Y006837D02*
X011240Y006837D01*
X011240Y006679D02*
X010370Y006679D01*
X010370Y006520D02*
X011240Y006520D01*
X011240Y006362D02*
X010370Y006362D01*
X010370Y006203D02*
X011240Y006203D01*
X011240Y006045D02*
X010370Y006045D01*
X010370Y005886D02*
X011240Y005886D01*
X011240Y005728D02*
X010370Y005728D01*
X010370Y005569D02*
X011240Y005569D01*
X011240Y005411D02*
X010370Y005411D01*
X010370Y005252D02*
X011240Y005252D01*
X011240Y005094D02*
X010370Y005094D01*
X010370Y004935D02*
X011240Y004935D01*
X011240Y004777D02*
X010370Y004777D01*
X010370Y004618D02*
X011240Y004618D01*
X010832Y004460D02*
X010370Y004460D01*
X010453Y004301D02*
X010760Y004301D01*
X010765Y004143D02*
X010611Y004143D01*
X010770Y003984D02*
X010849Y003984D01*
X010928Y003826D02*
X015170Y003826D01*
X015170Y003984D02*
X014911Y003984D01*
X014942Y004015D02*
X015000Y004154D01*
X015000Y004306D01*
X014942Y004445D01*
X014835Y004552D01*
X014696Y004610D01*
X014064Y004610D01*
X013925Y004552D01*
X013818Y004445D01*
X013760Y004306D01*
X013760Y004154D01*
X013818Y004015D01*
X013925Y003908D01*
X014064Y003850D01*
X014696Y003850D01*
X014835Y003908D01*
X014942Y004015D01*
X014995Y004143D02*
X015170Y004143D01*
X015170Y004301D02*
X015000Y004301D01*
X014928Y004460D02*
X015170Y004460D01*
X015170Y004618D02*
X011620Y004618D01*
X011620Y004777D02*
X015170Y004777D01*
X015170Y004935D02*
X011620Y004935D01*
X011620Y005094D02*
X015170Y005094D01*
X015170Y005252D02*
X011620Y005252D01*
X011620Y005411D02*
X015170Y005411D01*
X015170Y005569D02*
X011620Y005569D01*
X011620Y005728D02*
X015170Y005728D01*
X015170Y005886D02*
X011620Y005886D01*
X011620Y006045D02*
X015170Y006045D01*
X015170Y006203D02*
X011620Y006203D01*
X011620Y006362D02*
X012757Y006362D01*
X012735Y006383D02*
X012849Y006269D01*
X012999Y006207D01*
X013161Y006207D01*
X013311Y006269D01*
X013425Y006383D01*
X013487Y006533D01*
X013487Y006695D01*
X013425Y006844D01*
X013311Y006959D01*
X013161Y007021D01*
X012999Y007021D01*
X012849Y006959D01*
X012735Y006844D01*
X012673Y006695D01*
X012673Y006533D01*
X012735Y006383D01*
X012678Y006520D02*
X011620Y006520D01*
X011620Y006679D02*
X012673Y006679D01*
X012732Y006837D02*
X011620Y006837D01*
X011620Y006996D02*
X012937Y006996D01*
X013223Y006996D02*
X015170Y006996D01*
X015170Y007154D02*
X011620Y007154D01*
X011620Y007313D02*
X015170Y007313D01*
X015170Y007471D02*
X011620Y007471D01*
X011648Y007630D02*
X015170Y007630D01*
X015170Y007788D02*
X011807Y007788D01*
X011965Y007947D02*
X012981Y007947D01*
X012999Y007939D02*
X013161Y007939D01*
X013311Y008001D01*
X013425Y008116D01*
X013487Y008265D01*
X013487Y008427D01*
X013425Y008577D01*
X013311Y008691D01*
X013161Y008753D01*
X012999Y008753D01*
X012849Y008691D01*
X012735Y008577D01*
X012673Y008427D01*
X012673Y008265D01*
X012735Y008116D01*
X012849Y008001D01*
X012999Y007939D01*
X012745Y008105D02*
X012124Y008105D01*
X012282Y008264D02*
X012674Y008264D01*
X012673Y008422D02*
X012441Y008422D01*
X012599Y008581D02*
X012739Y008581D01*
X012758Y008739D02*
X012965Y008739D01*
X012916Y008898D02*
X015170Y008898D01*
X015170Y009056D02*
X013075Y009056D01*
X013233Y009215D02*
X015170Y009215D01*
X015170Y009373D02*
X013392Y009373D01*
X013550Y009532D02*
X015170Y009532D01*
X015170Y009690D02*
X013620Y009690D01*
X013620Y009849D02*
X015170Y009849D01*
X015170Y010007D02*
X013620Y010007D01*
X013620Y010166D02*
X015170Y010166D01*
X015170Y010324D02*
X013620Y010324D01*
X013620Y010483D02*
X015170Y010483D01*
X015170Y010641D02*
X013620Y010641D01*
X013620Y010800D02*
X015170Y010800D01*
X015170Y010958D02*
X013620Y010958D01*
X013620Y011117D02*
X015170Y011117D01*
X015170Y011275D02*
X013620Y011275D01*
X013240Y010800D02*
X013172Y010800D01*
X011747Y010641D02*
X009495Y010641D01*
X009495Y010800D02*
X011588Y010800D01*
X011440Y010958D02*
X009495Y010958D01*
X009495Y011117D02*
X011440Y011117D01*
X011440Y011275D02*
X009495Y011275D01*
X009495Y011434D02*
X011561Y011434D01*
X011637Y011751D02*
X009495Y011751D01*
X009495Y011909D02*
X011479Y011909D01*
X011440Y012068D02*
X009495Y012068D01*
X009495Y012226D02*
X011440Y012226D01*
X011512Y012385D02*
X009528Y012385D01*
X009687Y012543D02*
X011671Y012543D01*
X011686Y012702D02*
X009845Y012702D01*
X010004Y012860D02*
X011528Y012860D01*
X011440Y013019D02*
X010162Y013019D01*
X010321Y013177D02*
X011440Y013177D01*
X011463Y013336D02*
X010479Y013336D01*
X010259Y013653D02*
X009300Y013653D01*
X009293Y013811D02*
X010417Y013811D01*
X010100Y013494D02*
X009300Y013494D01*
X009179Y013336D02*
X009942Y013336D01*
X009783Y013177D02*
X009127Y013177D01*
X009257Y013019D02*
X009625Y013019D01*
X009466Y012860D02*
X009300Y012860D01*
X009302Y012702D02*
X009308Y012702D01*
X008240Y012226D02*
X000410Y012226D01*
X000410Y012068D02*
X008240Y012068D01*
X008240Y011909D02*
X000410Y011909D01*
X000410Y011751D02*
X008240Y011751D01*
X008240Y011592D02*
X000410Y011592D01*
X000410Y011434D02*
X008240Y011434D01*
X008620Y011592D02*
X008648Y011592D01*
X008240Y010958D02*
X006496Y010958D01*
X006550Y010800D02*
X008240Y010800D01*
X008240Y010641D02*
X006550Y010641D01*
X006476Y010483D02*
X008240Y010483D01*
X008240Y010324D02*
X006318Y010324D01*
X005934Y010166D02*
X008240Y010166D01*
X008240Y010007D02*
X005776Y010007D01*
X005617Y009849D02*
X008240Y009849D01*
X008240Y009690D02*
X005459Y009690D01*
X005300Y009532D02*
X008240Y009532D01*
X008240Y009373D02*
X005142Y009373D01*
X004983Y009215D02*
X008240Y009215D01*
X008240Y009056D02*
X004825Y009056D01*
X004666Y008898D02*
X008240Y008898D01*
X008240Y008739D02*
X004508Y008739D01*
X004349Y008581D02*
X005766Y008581D01*
X005610Y008422D02*
X004191Y008422D01*
X003970Y008739D02*
X002995Y008739D01*
X002995Y008581D02*
X003812Y008581D01*
X003653Y008422D02*
X002995Y008422D01*
X002995Y008264D02*
X003495Y008264D01*
X003336Y008105D02*
X002874Y008105D01*
X002715Y007947D02*
X003178Y007947D01*
X003019Y007788D02*
X002557Y007788D01*
X002398Y007630D02*
X002861Y007630D01*
X002702Y007471D02*
X002240Y007471D01*
X002081Y007313D02*
X002544Y007313D01*
X002385Y007154D02*
X001983Y007154D01*
X002050Y006996D02*
X002227Y006996D01*
X002068Y006837D02*
X002043Y006837D01*
X002289Y006520D02*
X004571Y006520D01*
X004541Y006550D02*
X004807Y006285D01*
X004746Y006310D01*
X004114Y006310D01*
X003975Y006252D01*
X003868Y006145D01*
X003810Y006006D01*
X003810Y005854D01*
X003868Y005715D01*
X003975Y005608D01*
X004114Y005550D01*
X004541Y005550D01*
X004807Y005285D01*
X004746Y005310D01*
X004114Y005310D01*
X003975Y005252D01*
X003868Y005145D01*
X003810Y005006D01*
X003810Y004854D01*
X003868Y004715D01*
X003975Y004608D01*
X004114Y004550D01*
X004746Y004550D01*
X004885Y004608D01*
X004992Y004715D01*
X005050Y004854D01*
X005050Y005006D01*
X005025Y005067D01*
X005365Y004726D01*
X005365Y002726D01*
X005638Y002453D01*
X005610Y002425D01*
X005610Y002035D01*
X005885Y001760D01*
X006275Y001760D01*
X006550Y002035D01*
X006550Y002425D01*
X006275Y002700D01*
X005929Y002700D01*
X005745Y002884D01*
X005745Y003900D01*
X005885Y003760D01*
X006275Y003760D01*
X006550Y004035D01*
X006550Y004425D01*
X006275Y004700D01*
X006245Y004700D01*
X006245Y005384D01*
X006134Y005495D01*
X004953Y006676D01*
X004992Y006715D01*
X005050Y006854D01*
X005050Y007006D01*
X004992Y007145D01*
X004885Y007252D01*
X004746Y007310D01*
X004114Y007310D01*
X003975Y007252D01*
X003868Y007145D01*
X003810Y007006D01*
X003810Y006854D01*
X003868Y006715D01*
X003975Y006608D01*
X004114Y006550D01*
X004541Y006550D01*
X004730Y006362D02*
X002130Y006362D01*
X001972Y006203D02*
X003926Y006203D01*
X003826Y006045D02*
X002034Y006045D01*
X002050Y005886D02*
X003810Y005886D01*
X003863Y005728D02*
X001997Y005728D01*
X001791Y005569D02*
X004069Y005569D01*
X003975Y005252D02*
X001885Y005252D01*
X001746Y005310D01*
X001114Y005310D01*
X000975Y005252D01*
X000868Y005145D01*
X000810Y005006D01*
X000810Y004854D01*
X000868Y004715D01*
X000975Y004608D01*
X001114Y004550D01*
X001746Y004550D01*
X001885Y004608D01*
X001992Y004715D01*
X002050Y004854D01*
X002050Y005006D01*
X001992Y005145D01*
X001885Y005252D01*
X002014Y005094D02*
X003846Y005094D01*
X003810Y004935D02*
X002050Y004935D01*
X002018Y004777D02*
X003842Y004777D01*
X003965Y004618D02*
X001895Y004618D01*
X000965Y004618D02*
X000410Y004618D01*
X000410Y004460D02*
X005365Y004460D01*
X005365Y004618D02*
X004895Y004618D01*
X005018Y004777D02*
X005315Y004777D01*
X005156Y004935D02*
X005050Y004935D01*
X005377Y005252D02*
X005839Y005252D01*
X005865Y005226D02*
X005865Y004680D01*
X005745Y004560D01*
X005745Y004884D01*
X005634Y004995D01*
X004953Y005676D01*
X004992Y005715D01*
X005050Y005854D01*
X005050Y006006D01*
X005025Y006067D01*
X005865Y005226D01*
X005865Y005094D02*
X005535Y005094D01*
X005694Y004935D02*
X005865Y004935D01*
X005865Y004777D02*
X005745Y004777D01*
X005745Y004618D02*
X005803Y004618D01*
X006245Y004777D02*
X009990Y004777D01*
X009990Y004935D02*
X006245Y004935D01*
X006245Y005094D02*
X009990Y005094D01*
X009990Y005252D02*
X006245Y005252D01*
X006218Y005411D02*
X009990Y005411D01*
X009990Y005569D02*
X006060Y005569D01*
X005901Y005728D02*
X009990Y005728D01*
X009359Y005886D02*
X006401Y005886D01*
X006275Y005760D02*
X006550Y006035D01*
X006550Y006425D01*
X006275Y006700D01*
X005885Y006700D01*
X005610Y006425D01*
X005610Y006035D01*
X005885Y005760D01*
X006275Y005760D01*
X006550Y006045D02*
X009210Y006045D01*
X009210Y006203D02*
X006550Y006203D01*
X006550Y006362D02*
X009210Y006362D01*
X009305Y006520D02*
X006455Y006520D01*
X006296Y006679D02*
X009464Y006679D01*
X009896Y006679D02*
X009990Y006679D01*
X009990Y006837D02*
X005043Y006837D01*
X005050Y006996D02*
X009971Y006996D01*
X009812Y007154D02*
X004983Y007154D01*
X004956Y006679D02*
X005864Y006679D01*
X005705Y006520D02*
X005109Y006520D01*
X005267Y006362D02*
X005610Y006362D01*
X005610Y006203D02*
X005426Y006203D01*
X005584Y006045D02*
X005610Y006045D01*
X005743Y005886D02*
X005759Y005886D01*
X005522Y005569D02*
X005060Y005569D01*
X004997Y005728D02*
X005364Y005728D01*
X005205Y005886D02*
X005050Y005886D01*
X005034Y006045D02*
X005047Y006045D01*
X005218Y005411D02*
X005681Y005411D01*
X006357Y004618D02*
X009403Y004618D01*
X009245Y004460D02*
X006515Y004460D01*
X006550Y004301D02*
X009210Y004301D01*
X009210Y004143D02*
X006550Y004143D01*
X006499Y003984D02*
X009261Y003984D01*
X009420Y003826D02*
X006340Y003826D01*
X005820Y003826D02*
X005745Y003826D01*
X005745Y003667D02*
X010549Y003667D01*
X010391Y003826D02*
X009940Y003826D01*
X010099Y003984D02*
X010232Y003984D01*
X010708Y003509D02*
X005745Y003509D01*
X005745Y003350D02*
X010866Y003350D01*
X011025Y003192D02*
X005745Y003192D01*
X005745Y003033D02*
X011183Y003033D01*
X011342Y002875D02*
X005754Y002875D01*
X005913Y002716D02*
X011500Y002716D01*
X011721Y003033D02*
X015170Y003033D01*
X015170Y002875D02*
X011879Y002875D01*
X012038Y002716D02*
X015170Y002716D01*
X015170Y002558D02*
X014822Y002558D01*
X014961Y002399D02*
X015170Y002399D01*
X015170Y002241D02*
X015000Y002241D01*
X014970Y002082D02*
X015170Y002082D01*
X015170Y001924D02*
X014851Y001924D01*
X015170Y001765D02*
X009880Y001765D01*
X009875Y001760D02*
X010150Y002035D01*
X010150Y002425D01*
X009875Y002700D01*
X009485Y002700D01*
X009210Y002425D01*
X009210Y002035D01*
X009485Y001760D01*
X009875Y001760D01*
X010038Y001924D02*
X010909Y001924D01*
X010790Y002082D02*
X010150Y002082D01*
X010150Y002241D02*
X010760Y002241D01*
X010799Y002399D02*
X010150Y002399D01*
X010017Y002558D02*
X010938Y002558D01*
X011562Y003192D02*
X015170Y003192D01*
X015170Y003350D02*
X011404Y003350D01*
X011245Y003509D02*
X015170Y003509D01*
X015170Y003667D02*
X011087Y003667D01*
X011911Y003984D02*
X013849Y003984D01*
X013765Y004143D02*
X011995Y004143D01*
X012000Y004301D02*
X013760Y004301D01*
X013832Y004460D02*
X011928Y004460D01*
X013403Y006362D02*
X015170Y006362D01*
X015170Y006520D02*
X013482Y006520D01*
X013487Y006679D02*
X015170Y006679D01*
X015170Y006837D02*
X013428Y006837D01*
X013179Y007947D02*
X015170Y007947D01*
X015170Y008105D02*
X013415Y008105D01*
X013486Y008264D02*
X015170Y008264D01*
X015170Y008422D02*
X013487Y008422D01*
X013421Y008581D02*
X015170Y008581D01*
X015170Y008739D02*
X013195Y008739D01*
X011430Y010324D02*
X009300Y010324D01*
X009300Y010166D02*
X011272Y010166D01*
X011113Y010007D02*
X009251Y010007D01*
X009092Y009849D02*
X010955Y009849D01*
X010796Y009690D02*
X008620Y009690D01*
X008620Y009532D02*
X010638Y009532D01*
X010479Y009373D02*
X008620Y009373D01*
X008620Y009215D02*
X010321Y009215D01*
X010162Y009056D02*
X008620Y009056D01*
X008620Y008898D02*
X010004Y008898D01*
X009845Y008739D02*
X008765Y008739D01*
X008923Y008581D02*
X009366Y008581D01*
X009210Y008422D02*
X009082Y008422D01*
X008861Y008105D02*
X006550Y008105D01*
X006550Y008264D02*
X008703Y008264D01*
X008544Y008422D02*
X006550Y008422D01*
X006394Y008581D02*
X008386Y008581D01*
X009020Y007947D02*
X006461Y007947D01*
X006303Y007788D02*
X009178Y007788D01*
X009337Y007630D02*
X004907Y007630D01*
X005022Y007788D02*
X005857Y007788D01*
X005699Y007947D02*
X005050Y007947D01*
X004129Y008898D02*
X002995Y008898D01*
X002995Y009056D02*
X004287Y009056D01*
X004446Y009215D02*
X002995Y009215D01*
X002995Y009373D02*
X004604Y009373D01*
X004763Y009532D02*
X002995Y009532D01*
X002995Y009690D02*
X004921Y009690D01*
X005080Y009849D02*
X002995Y009849D01*
X002995Y010007D02*
X005238Y010007D01*
X005397Y010166D02*
X002995Y010166D01*
X002995Y010324D02*
X004942Y010324D01*
X004956Y010310D02*
X005304Y010310D01*
X005550Y010556D01*
X005550Y010904D01*
X005304Y011150D01*
X004956Y011150D01*
X004710Y010904D01*
X004710Y010556D01*
X004956Y010310D01*
X004784Y010483D02*
X003289Y010483D01*
X003390Y010641D02*
X004710Y010641D01*
X004710Y010800D02*
X003398Y010800D01*
X003309Y010958D02*
X004764Y010958D01*
X004923Y011117D02*
X000410Y011117D01*
X000410Y011275D02*
X006006Y011275D01*
X005923Y011117D02*
X005337Y011117D01*
X005496Y010958D02*
X005764Y010958D01*
X005710Y010800D02*
X005550Y010800D01*
X005550Y010641D02*
X005710Y010641D01*
X005714Y010483D02*
X005476Y010483D01*
X005555Y010324D02*
X005318Y010324D01*
X003810Y007947D02*
X003715Y007947D01*
X003838Y007788D02*
X003557Y007788D01*
X003398Y007630D02*
X003953Y007630D01*
X003877Y007154D02*
X002923Y007154D01*
X003081Y007313D02*
X009654Y007313D01*
X009495Y007471D02*
X003240Y007471D01*
X002764Y006996D02*
X003810Y006996D01*
X003817Y006837D02*
X002606Y006837D01*
X002447Y006679D02*
X003904Y006679D01*
X004681Y005411D02*
X000410Y005411D01*
X000410Y005569D02*
X001069Y005569D01*
X000863Y005728D02*
X000410Y005728D01*
X000410Y005886D02*
X000810Y005886D01*
X000826Y006045D02*
X000410Y006045D01*
X000410Y006203D02*
X000926Y006203D01*
X000904Y006679D02*
X000410Y006679D01*
X000410Y006837D02*
X000817Y006837D01*
X000810Y006996D02*
X000410Y006996D01*
X000410Y007154D02*
X000877Y007154D01*
X000953Y007630D02*
X000410Y007630D01*
X000410Y007788D02*
X000838Y007788D01*
X000810Y007947D02*
X000410Y007947D01*
X000410Y008105D02*
X000851Y008105D01*
X001002Y008264D02*
X000410Y008264D01*
X000410Y008422D02*
X002615Y008422D01*
X002615Y008581D02*
X000410Y008581D01*
X000410Y008739D02*
X002615Y008739D01*
X002615Y008898D02*
X000410Y008898D01*
X000410Y009056D02*
X002615Y009056D01*
X002615Y009215D02*
X000410Y009215D01*
X000410Y009373D02*
X002615Y009373D01*
X002615Y009532D02*
X000410Y009532D01*
X000410Y009690D02*
X002615Y009690D01*
X002615Y009849D02*
X000410Y009849D01*
X000410Y010007D02*
X002615Y010007D01*
X002615Y010166D02*
X000410Y010166D01*
X000410Y010324D02*
X002615Y010324D01*
X002471Y010483D02*
X000410Y010483D01*
X000410Y010641D02*
X002370Y010641D01*
X002362Y010800D02*
X000410Y010800D01*
X000410Y010958D02*
X002451Y010958D01*
X002495Y008264D02*
X001858Y008264D01*
X002009Y008105D02*
X002336Y008105D01*
X002178Y007947D02*
X002050Y007947D01*
X001702Y007471D02*
X000410Y007471D01*
X000410Y007313D02*
X001544Y007313D01*
X001751Y006520D02*
X000410Y006520D01*
X000410Y006362D02*
X001593Y006362D01*
X000975Y005252D02*
X000410Y005252D01*
X000410Y005094D02*
X000846Y005094D01*
X000810Y004935D02*
X000410Y004935D01*
X000410Y004777D02*
X000842Y004777D01*
X000410Y004301D02*
X005365Y004301D01*
X005365Y004143D02*
X000410Y004143D01*
X000410Y003984D02*
X005365Y003984D01*
X005365Y003826D02*
X000410Y003826D01*
X000410Y003667D02*
X005365Y003667D01*
X005365Y003509D02*
X000410Y003509D01*
X000410Y003350D02*
X005365Y003350D01*
X005365Y003192D02*
X000410Y003192D01*
X000410Y003033D02*
X005365Y003033D01*
X005365Y002875D02*
X000410Y002875D01*
X000410Y002716D02*
X005375Y002716D01*
X005534Y002558D02*
X000410Y002558D01*
X000410Y002399D02*
X005610Y002399D01*
X005610Y002241D02*
X000410Y002241D01*
X000410Y002082D02*
X005610Y002082D01*
X005722Y001924D02*
X000410Y001924D01*
X000410Y001765D02*
X005880Y001765D01*
X006280Y001765D02*
X009480Y001765D01*
X009322Y001924D02*
X006438Y001924D01*
X006550Y002082D02*
X009210Y002082D01*
X009210Y002241D02*
X006550Y002241D01*
X006550Y002399D02*
X009210Y002399D01*
X009343Y002558D02*
X006417Y002558D01*
X009957Y004618D02*
X009990Y004618D01*
X012199Y002558D02*
X013938Y002558D01*
X013790Y002082D02*
X011970Y002082D01*
X011851Y001924D02*
X013909Y001924D01*
X015170Y001607D02*
X000410Y001607D01*
X000410Y001448D02*
X015170Y001448D01*
X015170Y001290D02*
X000410Y001290D01*
X000410Y001131D02*
X015170Y001131D01*
X015170Y000973D02*
X000410Y000973D01*
X000410Y000814D02*
X015170Y000814D01*
X015170Y000656D02*
X000410Y000656D01*
X000410Y000497D02*
X015170Y000497D01*
X015630Y000497D02*
X015680Y000497D01*
X015680Y000339D02*
X015630Y000339D01*
X015630Y000180D02*
X015680Y000180D01*
X015630Y000180D01*
X015630Y015180D01*
X015680Y015180D01*
X015680Y000180D01*
X015680Y000656D02*
X015630Y000656D01*
X015630Y000814D02*
X015680Y000814D01*
X015680Y000973D02*
X015630Y000973D01*
X015630Y001131D02*
X015680Y001131D01*
X015680Y001290D02*
X015630Y001290D01*
X015630Y001448D02*
X015680Y001448D01*
X015680Y001607D02*
X015630Y001607D01*
X015630Y001765D02*
X015680Y001765D01*
X015680Y001924D02*
X015630Y001924D01*
X015630Y002082D02*
X015680Y002082D01*
X015680Y002241D02*
X015630Y002241D01*
X015630Y002399D02*
X015680Y002399D01*
X015680Y002558D02*
X015630Y002558D01*
X015630Y002716D02*
X015680Y002716D01*
X015680Y002875D02*
X015630Y002875D01*
X015630Y003033D02*
X015680Y003033D01*
X015680Y003192D02*
X015630Y003192D01*
X015630Y003350D02*
X015680Y003350D01*
X015680Y003509D02*
X015630Y003509D01*
X015630Y003667D02*
X015680Y003667D01*
X015680Y003826D02*
X015630Y003826D01*
X015630Y003984D02*
X015680Y003984D01*
X015680Y004143D02*
X015630Y004143D01*
X015630Y004301D02*
X015680Y004301D01*
X015680Y004460D02*
X015630Y004460D01*
X015630Y004618D02*
X015680Y004618D01*
X015680Y004777D02*
X015630Y004777D01*
X015630Y004935D02*
X015680Y004935D01*
X015680Y005094D02*
X015630Y005094D01*
X015630Y005252D02*
X015680Y005252D01*
X015680Y005411D02*
X015630Y005411D01*
X015630Y005569D02*
X015680Y005569D01*
X015680Y005728D02*
X015630Y005728D01*
X015630Y005886D02*
X015680Y005886D01*
X015680Y006045D02*
X015630Y006045D01*
X015630Y006203D02*
X015680Y006203D01*
X015680Y006362D02*
X015630Y006362D01*
X015630Y006520D02*
X015680Y006520D01*
X015680Y006679D02*
X015630Y006679D01*
X015630Y006837D02*
X015680Y006837D01*
X015680Y006996D02*
X015630Y006996D01*
X015630Y007154D02*
X015680Y007154D01*
X015680Y007313D02*
X015630Y007313D01*
X015630Y007471D02*
X015680Y007471D01*
X015680Y007630D02*
X015630Y007630D01*
X015630Y007788D02*
X015680Y007788D01*
X015680Y007947D02*
X015630Y007947D01*
X015630Y008105D02*
X015680Y008105D01*
X015680Y008264D02*
X015630Y008264D01*
X015630Y008422D02*
X015680Y008422D01*
X015680Y008581D02*
X015630Y008581D01*
X015630Y008739D02*
X015680Y008739D01*
X015680Y008898D02*
X015630Y008898D01*
X015630Y009056D02*
X015680Y009056D01*
X015680Y009215D02*
X015630Y009215D01*
X015630Y009373D02*
X015680Y009373D01*
X015680Y009532D02*
X015630Y009532D01*
X015630Y009690D02*
X015680Y009690D01*
X015680Y009849D02*
X015630Y009849D01*
X015630Y010007D02*
X015680Y010007D01*
X015680Y010166D02*
X015630Y010166D01*
X015630Y010324D02*
X015680Y010324D01*
X015680Y010483D02*
X015630Y010483D01*
X015630Y010641D02*
X015680Y010641D01*
X015680Y010800D02*
X015630Y010800D01*
X015630Y010958D02*
X015680Y010958D01*
X015680Y011117D02*
X015630Y011117D01*
X015630Y011275D02*
X015680Y011275D01*
X015680Y011434D02*
X015630Y011434D01*
X015630Y011592D02*
X015680Y011592D01*
X015680Y011751D02*
X015630Y011751D01*
X015630Y011909D02*
X015680Y011909D01*
X015680Y012068D02*
X015630Y012068D01*
X015630Y012226D02*
X015680Y012226D01*
X015680Y012385D02*
X015630Y012385D01*
X015630Y012543D02*
X015680Y012543D01*
X015680Y012702D02*
X015630Y012702D01*
X015630Y012860D02*
X015680Y012860D01*
X015680Y013019D02*
X015630Y013019D01*
X015630Y013177D02*
X015680Y013177D01*
X015680Y013336D02*
X015630Y013336D01*
X015630Y013494D02*
X015680Y013494D01*
X015680Y013653D02*
X015630Y013653D01*
X015630Y013811D02*
X015680Y013811D01*
X015680Y013970D02*
X015630Y013970D01*
X015630Y014128D02*
X015680Y014128D01*
X015680Y014287D02*
X015630Y014287D01*
X015630Y014445D02*
X015680Y014445D01*
X015680Y014604D02*
X015630Y014604D01*
X015630Y014762D02*
X015680Y014762D01*
X015680Y014921D02*
X015630Y014921D01*
X015630Y015079D02*
X015680Y015079D01*
X015170Y013970D02*
X009134Y013970D01*
X009115Y010871D02*
X009115Y010759D01*
X009006Y010650D01*
X008706Y010650D01*
X008620Y010564D01*
X008620Y010896D01*
X008706Y010810D01*
X009054Y010810D01*
X009115Y010871D01*
X009115Y010800D02*
X008620Y010800D01*
X008620Y010641D02*
X008697Y010641D01*
X009376Y010483D02*
X011589Y010483D01*
X008668Y009849D02*
X008620Y009849D01*
M02*
